<?xml version="1.0" encoding="utf-8"?>
<!-- Generator: Adobe Illustrator 23.1.1, SVG Export Plug-In . SVG Version: 6.00 Build 0)  -->
<svg version="1.1" id="Layer_2" xmlns="http://www.w3.org/2000/svg" xmlns:xlink="http://www.w3.org/1999/xlink" x="0px" y="0px"
	 viewBox="0 0 657 232" style="enable-background:new 0 0 657 232;" xml:space="preserve">
<style type="text/css">
	.st0{fill:#E5BC00;}
	.st1{fill:url(#SVGID_1_);}
	.st2{fill:url(#SVGID_2_);}
	.st3{fill:url(#SVGID_3_);}
	.st4{display:none;fill:url(#SVGID_4_);}
	.st5{fill:#F9F9F9;}
</style>
<g id="boton">
	<path class="st0" d="M564.6,191.3H91.4c-41.1,0-74.4-33.3-74.4-74.4l0,0c0-41.1,33.3-74.4,74.4-74.4h473.2
		c41.1,0,74.4,33.3,74.4,74.4l0,0C639,157.9,605.7,191.3,564.6,191.3z"/>
	<radialGradient id="SVGID_1_" cx="328" cy="116.847" r="377.2744" gradientUnits="userSpaceOnUse">
		<stop  offset="0.1741" style="stop-color:#E8E8E8"/>
		<stop  offset="0.3138" style="stop-color:#E4E4E4"/>
		<stop  offset="0.4432" style="stop-color:#D9D9D9"/>
		<stop  offset="0.5686" style="stop-color:#C6C6C6"/>
		<stop  offset="0.6916" style="stop-color:#ACACAC"/>
		<stop  offset="0.8128" style="stop-color:#8A8A8A"/>
		<stop  offset="0.9309" style="stop-color:#616161"/>
		<stop  offset="1" style="stop-color:#454545"/>
	</radialGradient>
	<path class="st1" d="M564.6,191.3H91.4c-41.1,0-74.4-33.3-74.4-74.4l0,0c0-41.1,33.3-74.4,74.4-74.4h473.2
		c41.1,0,74.4,33.3,74.4,74.4l0,0C639,157.9,605.7,191.3,564.6,191.3z"/>
	<linearGradient id="SVGID_2_" gradientUnits="userSpaceOnUse" x1="328.0003" y1="159.4585" x2="328.0003" y2="40.2631">
		<stop  offset="4.975120e-03" style="stop-color:#000000"/>
		<stop  offset="0.1687" style="stop-color:#040404"/>
		<stop  offset="0.3224" style="stop-color:#0F0F0F"/>
		<stop  offset="0.4722" style="stop-color:#222222"/>
		<stop  offset="0.6195" style="stop-color:#3D3D3D"/>
		<stop  offset="0.7651" style="stop-color:#5F5F5F"/>
		<stop  offset="0.9073" style="stop-color:#898989"/>
		<stop  offset="1" style="stop-color:#A8A8A8"/>
	</linearGradient>
	<path class="st2" d="M553.6,105.9H102.5c-15.8,0-28.6-12.8-28.6-28.6l0,0c0-15.8,12.8-28.6,28.6-28.6h451.1
		c15.8,0,28.6,12.8,28.6,28.6l0,0C582.2,93.1,569.4,105.9,553.6,105.9z"/>
	<linearGradient id="SVGID_3_" gradientUnits="userSpaceOnUse" x1="328.0003" y1="219.8779" x2="328.0003" y2="106.6336">
		<stop  offset="4.975120e-03" style="stop-color:#D4D4D4"/>
		<stop  offset="0.3172" style="stop-color:#D8D8D8"/>
		<stop  offset="0.6102" style="stop-color:#E3E3E3"/>
		<stop  offset="0.8947" style="stop-color:#F6F6F6"/>
		<stop  offset="1" style="stop-color:#FFFFFF"/>
	</linearGradient>
	<path class="st3" d="M572.1,181.6H83.9c-5.6,0-10.1-4.5-10.1-10.1l0,0c0-5.6,4.5-10.1,10.1-10.1h488.1c5.6,0,10.1,4.5,10.1,10.1
		l0,0C582.2,177,577.6,181.6,572.1,181.6z"/>
	
		<radialGradient id="SVGID_4_" cx="57.1714" cy="7516.3989" r="186.9621" gradientTransform="matrix(1.1735 0 0 0.1735 262.8174 -1250.2111)" gradientUnits="userSpaceOnUse">
		<stop  offset="7.960200e-02" style="stop-color:#A8A8A8"/>
		<stop  offset="0.3459" style="stop-color:#6F6F6F"/>
		<stop  offset="0.6509" style="stop-color:#333333"/>
		<stop  offset="0.8761" style="stop-color:#0E0E0E"/>
		<stop  offset="0.995" style="stop-color:#000000"/>
	</radialGradient>
	<path class="st4" d="M549.3,53.9c0,17.9-98.2,32.4-219.4,32.4c-121.2,0-219.4-14.5-219.4-32.4c0-17.9,98.2-32.4,219.4-32.4
		C451.1,21.4,549.3,36,549.3,53.9z"/>
	<g>
		
			<image style="overflow:visible;opacity:0.3;" width="394" height="115" xlink:href="4815615E3EDA00AC.png"  transform="matrix(1 0 0 1 139 70)">
		</image>
		<g>
			<g>
				<path class="st5" d="M153.3,132.6c0-3.9,0.9-6.2,2.7-6.9c0.9-0.5,1.9-0.7,2.8-0.7c0.1,0,0.3,0,0.3,0.1
					c-0.6-4.5-0.8-8.9-0.8-13.1c0-5.3,0.5-10.2,1.5-14.7c-0.5,0.1-0.8,0.2-1,0.2c-0.9,0-1.9-0.2-2.8-0.7c-1.8-0.7-2.7-3-2.7-7
					c0-1.8,0.2-3,0.7-3.6c1.6-0.7,4.6-1.2,8.9-1.6c4.3-0.4,8.4-0.6,12.4-0.6c9.3,0,16.8,0.9,22.5,2.7c0.5,1.5,0.8,3.7,0.8,6.6
					c0,2.1-0.6,5.1-1.9,9c-1.2,0.3-2.4,0.5-3.5,0.5c-2.9,0-5.6-0.8-8.1-2.5l0.2-2.5c-1-0.7-2.9-1-5.6-1c-3.1,0-4.8,0.2-5,0.7
					c0.2,1.8,0.3,3.2,0.3,4.1c0,2-0.3,3.8-1,5.5c1.9,0,2.9-0.1,3-0.2c-0.1-0.2-0.1-0.4-0.1-0.7c0-0.6,0.2-1.2,0.7-2.1
					c0.3-0.3,1.1-0.4,2.5-0.4c2.1,0,3.6,0.2,4.4,0.5c1.9,1.7,2.9,4.1,2.9,7.2c0,2.8-0.9,4.8-2.6,5.9c-0.7,0.4-2,0.5-4,0.5
					c-2,0-3.1-0.2-3.4-0.5c-0.5-0.6-0.7-1.4-0.7-2.3l-3.1,0.4c0,0.5-0.3,3.4-0.8,8.8c1.8,1.5,3.9,2.2,6.5,2.2c2.2,0,4.2-0.5,5.9-1.4
					l-0.2-2.5c2.5-1.7,5.2-2.5,8.1-2.5c1.1,0,2.3,0.2,3.5,0.5c1.3,3.9,1.9,6.9,1.9,9c0,2.8-0.3,4.9-0.8,6.4
					c-3.8,2.1-10.7,3.2-20.7,3.2c-4.9,0-9.5-0.3-13.9-0.8c-4.4-0.5-7.5-1.2-9.2-2C153.5,135.6,153.3,134.4,153.3,132.6z"/>
				<path class="st5" d="M204.8,132.6c0-3.1,0.7-5.1,2-5.9c0.6-0.5,1.3-0.7,2-0.7c0.3,0,0.6,0.1,1.1,0.2c0-1.5-0.1-3.8-0.2-7
					c-0.1-3.2-0.2-5.7-0.2-7.3c-0.2,0-0.5,0.1-0.9,0.2c-0.4,0.1-0.7,0.2-1,0.2c-0.2,0-0.5,0-0.9-0.2c-0.4-0.1-0.7-0.2-0.9-0.2
					c-0.2-0.2-0.3-0.7-0.3-1.6c0-1.4,0.2-3.1,0.6-5.1c0.4-2,0.8-3.3,1.1-3.7c0.6-0.3,1.8-0.6,3.6-0.9c1.8-0.3,3.7-0.5,5.6-0.5
					c2.4,0,4.4,0.3,6,0.9c0.4,0.4,0.5,1,0.5,1.9c0,0.2-0.1,1.1-0.4,2.6c5.3-4,10.2-6.1,14.9-6.1c4.8,0,8.5,2,10.9,6
					c5.9-4,11.2-6,15.9-6c3.8,0,7,1.4,9.4,4.3c2.4,2.8,3.6,7.1,3.6,12.9c0,0.7-0.2,3.5-0.5,8.2c0-0.1,0.2-0.1,0.7-0.1
					c0.7,0,1.9,0.1,3.6,0.4c0.5,0.5,0.7,2.2,0.7,5c0,3.5-0.3,5.7-0.8,6.5c-3.8,1-7.2,1.5-10.4,1.5c-3.5,0-6.5-0.5-9.1-1.4
					c-0.4-0.3-0.7-1.2-1.1-2.7c-0.4-1.6-0.6-2.9-0.6-4c0-1.7,0.5-3.1,1.4-4.4c0.6-0.4,1.3-0.5,2.1-0.5c0.3,0,0.4,0,0.5,0.1
					c0.1,0.1,0.2,0.1,0.3,0.2c0.1,0.1,0.3,0.1,0.4,0.2c0.3-1.5,0.5-2.9,0.5-4.1c0-2.9-0.7-5.1-2-6.7s-3-2.3-5-2.3
					c-1.5,0-2.8,0.4-4.1,1.3c-1.3,0.9-2.3,2.1-3,3.7c-0.1,3.7-0.3,6.2-0.5,7.4c0-0.1,0.2-0.1,0.7-0.1c0.7,0,1.9,0.1,3.6,0.4
					c0.5,0.5,0.7,2.2,0.7,5c0,3.5-0.3,5.7-0.8,6.5c-3.8,1-7.2,1.5-10.4,1.5c-3.5,0-6.5-0.5-9.1-1.4c-0.4-0.3-0.7-1.2-1.1-2.7
					c-0.4-1.6-0.6-2.9-0.6-4c0-1.7,0.5-3.1,1.4-4.4c0.6-0.4,1.3-0.5,2.1-0.5c0.3,0,0.4,0,0.5,0.1c0.1,0.1,0.2,0.1,0.3,0.2
					c0.1,0.1,0.3,0.1,0.4,0.2c0.2-1.2,0.3-2.1,0.3-2.9c0-3.4-0.7-5.9-2-7.6c-1.3-1.7-3-2.5-5-2.5c-2.1,0-3.9,0.9-5.4,2.6
					s-2.3,4.1-2.3,7.2c0,1.3,0.1,2.7,0.4,4.1c0.6-0.4,1.4-0.5,2.3-0.5c0.9,0,1.4,0.1,1.6,0.4c0.5,0,0.7,1,0.7,3.1
					c0,0.5-0.2,2.6-0.7,6.3c-3.7,1.7-8.3,2.5-13.6,2.5c-4.7,0-7.7-0.7-9-2.2C205.1,135.1,204.8,134.1,204.8,132.6z"/>
				<path class="st5" d="M282.8,151.2c0-2.4,0.1-3.8,0.4-4.3c0.3-0.4,1.2-0.7,2.6-1c1.4-0.3,2.7-0.4,3.8-0.4c0.5,0,0.9,0,1.1,0.1
					c0-0.9,0-3,0.2-6.3c0.1-3.3,0.2-6.3,0.2-8.8c0-8.9,0.2-14.8,0.7-17.6c-0.2,0.1-0.6,0.1-1.4,0.1c-1.8,0-3.6-0.2-5.3-0.5
					c-0.4-0.3-0.7-2.4-0.7-6.2c0-2.3,0.1-3.8,0.2-4.4c0.4-0.6,1.5-1.1,3.5-1.6c1.9-0.5,4.2-0.8,6.6-0.8c4.6,0,7.4,0.1,8.3,0.3
					c0.3,1,0.4,2,0.4,2.9c0,0.4,0,0.7-0.1,0.7c0.8-0.2,2.4-1,4.9-2.2c2.5-1.2,4.5-1.9,6.2-1.9c2.7,0,5.1,1.1,7.2,3.2
					c2.1,2.1,3.7,4.6,4.7,7.6c1,2.9,1.5,5.8,1.5,8.7c0,5.1-1.5,9.6-4.5,13.6c-3,4-7,5.9-12.1,5.9c-2.3,0-4.5-0.3-6.6-0.9
					c0,0.1,0,1.1,0.1,3c0.1,1.9,0.1,3.9,0.1,6.1c0,5-0.1,7.7-0.4,8.2c-1.7,1.5-5.3,2.3-10.8,2.3c-2.6,0-4.8-0.1-6.6-0.4
					c-1.7-0.3-2.8-0.5-3.2-0.7l-0.6-0.3C282.9,155,282.8,153.6,282.8,151.2z M302.6,121.2c0,1.7,0.5,3.2,1.5,4.3
					c1,1.2,2.3,1.7,4,1.7c2.1,0,4-1,5.6-2.9c1.7-1.9,2.5-4,2.5-6.2c0-1.6-0.5-3-1.4-4.2c-1-1.2-2.2-1.7-3.8-1.7
					c-2.1,0-4,0.9-5.8,2.7C303.4,116.8,302.6,118.9,302.6,121.2z"/>
				<path class="st5" d="M330.1,121.1c0-2.4,0.5-4.8,1.4-7.3c0.9-2.5,2.3-4.8,4.1-7c1.8-2.2,4.2-4,7.3-5.4c3.1-1.4,6.5-2.1,10.3-2.1
					c4.2,0,7.5,0.8,9.8,2.5c2.3,1.7,3.5,4.1,3.5,7.2c0,4.2-2,7.7-5.9,10.3c-3.9,2.7-8.3,4-13.1,4c-1.3,0-2.7-0.1-4-0.4
					c0.1,3.6,3.2,5.4,9.2,5.4c1.1,0,2-0.1,2.7-0.2c0-0.4,0.1-0.8,0.2-1.2c2.2-1.8,4.6-2.6,7.2-2.6c0.5,0,0.9,0,1.1,0
					c3.3,1.8,5.4,4.8,6.1,8.9c-0.1,0.4-0.2,0.8-0.6,1.3c-0.3,0.4-0.7,0.8-1,1.2c-0.4,0.3-0.9,0.7-1.5,1.1c-0.7,0.4-1.2,0.7-1.6,0.9
					c-0.4,0.2-0.9,0.5-1.7,0.9c-0.7,0.4-1.1,0.6-1.2,0.7c-0.3,0-0.6,0-0.8-0.1c-0.2-0.1-0.4-0.2-0.6-0.4c-0.2-0.2-0.3-0.3-0.3-0.4
					c-0.1-0.1-0.2-0.3-0.3-0.6c-0.2-0.3-0.3-0.5-0.3-0.5c-2.8,1.1-5.7,1.6-8.7,1.6c-6.8,0-12-1.7-15.8-5.2S330.1,126.1,330.1,121.1z
					 M344.9,113.2c0,1.7,1.2,2.5,3.6,2.5c1.8,0,3.6-0.4,5.2-1.3c1.7-0.9,2.5-1.9,2.5-3.2c0-0.9-0.3-1.8-0.9-2.7
					c-0.6-0.9-1.5-1.4-2.8-1.4c-1.6,0-3.2,0.6-5,1.9C345.8,110.3,344.9,111.7,344.9,113.2z"/>
				<path class="st5" d="M371.6,135.8c0-3.3,2.4-7.4,7-12.4c4.6-5,10.2-9.4,16.7-13.3c-1.5-0.8-3.3-1.3-5.4-1.3
					c-2.7,0-4.7,0.7-6,2.2c0.2,0.4,0.2,1,0.2,1.8c0,0.5-0.1,0.8-0.2,1c-0.9,0.4-2.2,0.7-3.8,0.7c-2.1,0-3.8-0.4-5.1-1.2
					c-0.7-0.6-1.1-2.7-1.1-6.1c0-3.9,0.4-6.1,1.1-6.5c1.4-0.4,3-0.5,4.7-0.5c1.7,0,3.3,0.2,4.8,0.5c0.3,0.1,0.5,0.6,0.5,1.7
					c1.9-1.6,5.9-2.3,12-2.3c5.7,0,11.4,0.6,17.1,1.8c-0.1,3-2.7,7.3-8.1,12.9c-5.3,5.6-10,9.7-14.1,12.1c1.1,0.4,2.3,0.5,3.5,0.5
					c2.1,0,4.9-0.9,8.6-2.6c-0.1-0.2-0.1-0.4-0.1-0.6c0-0.9,0.3-1.8,0.8-2.9c1-0.4,2.4-0.6,4.2-0.6c1.8,0,3.1,0.2,4,0.6
					c1,0.7,1.4,3.1,1.4,7.1c0,2.2-0.2,4.3-0.5,6.2c-0.3,1.9-0.7,3-1.1,3.1s-1.8,0.2-3.9,0.2c-3.5,0-5.4-0.2-5.6-0.6
					c-0.3,0-0.4-0.8-0.5-2.4c-1.3,1-3.8,1.7-7.5,2.2c-3.7,0.5-7.2,0.7-10.5,0.7C378.6,137.9,374.2,137.2,371.6,135.8z"/>
				<path class="st5" d="M418.7,121.8c0-3.6,0.5-7.1,1.6-10.4c1.1-3.3,2.9-6.2,5.3-8.6c2.4-2.4,5.3-3.6,8.7-3.6
					c1.4,0,2.6,0.2,3.7,0.6c1.1,0.4,1.9,0.9,2.6,1.5c0.6,0.6,1.1,1.2,1.6,1.8c0.4,0.6,0.7,1.1,0.8,1.5l0.3,0.6c0-1.7,0-3-0.1-3.9
					c1.7-1.4,4.7-2.1,9-2.1c1.5,0,2.9,0.1,4.1,0.2c1.2,0.1,2.1,0.2,2.7,0.4c0.6,0.2,1.1,0.3,1.5,0.5c0.4,0.2,0.6,0.3,0.7,0.3
					l0.2,0.1c0.2,0.5,0.3,1.9,0.3,4.3c0,2.4-0.1,3.9-0.3,4.3c-0.7,0.9-2,1.4-3.8,1.4c-0.5,0-1.1,0-1.7-0.2c0.2,0.3,0.2,1.5,0.2,3.6
					c0,6.4-0.2,9.9-0.7,10.6c0.3-0.2,0.8-0.2,1.3-0.2c0.6,0,1.9,0.3,4,0.9c0.4,0.3,0.6,2.6,0.6,6.8c0,2.2-0.1,3.6-0.2,4.2
					c-0.3,0.5-1.4,1.1-3.4,1.6c-1.9,0.5-4,0.7-6.1,0.7c-6.1,0-9.5-0.1-10.2-0.3c-0.4-0.9-0.5-1.7-0.5-2.4c0-0.4,0.1-0.7,0.2-0.9
					c-0.8,0.3-2.4,1-4.9,2.3c-2.5,1.3-4.4,1.9-5.6,1.9c-3.9,0-6.8-1.7-8.8-5C419.7,130.8,418.7,126.7,418.7,121.8z M428.8,120.4
					c0,1.7,0.5,3.2,1.4,4.5c1,1.3,2.2,1.9,3.8,1.9c2.1,0,4-0.9,5.7-2.8c1.7-1.9,2.6-4,2.6-6.5c0-1.7-0.5-3-1.5-4.2
					c-1-1.1-2.3-1.7-3.9-1.7c-1.5,0-2.9,0.5-4.2,1.5c-1.3,1-2.3,2.3-3,3.9C429.1,118.1,428.8,119.3,428.8,120.4z"/>
				<path class="st5" d="M466.5,104.7c0-2.4,0.1-3.8,0.3-4.3c1.9-0.9,5.7-1.4,11.4-1.4c2.1,0,3.6,0.1,4.7,0.4s2.1,0.9,3,1.7
					c0,0.9-0.1,2.2-0.1,3.9l0.2-0.6c0.2-0.4,0.5-0.9,0.9-1.5c0.4-0.6,0.9-1.2,1.6-1.8c0.6-0.6,1.5-1.1,2.6-1.5
					c1.1-0.4,2.3-0.6,3.7-0.6c3.8,0,7.1,1.7,9.8,5c-1.1,4.7-3.9,8-8.4,10c-1.8-1.3-3.5-2-5.1-2c-2,0-3.6,1-4.6,3
					c-1.1,2-1.6,4.5-1.6,7.4c0,1,0.1,2.1,0.2,3.3c0.3,0,1.2,0.2,2.7,0.5l0.8,0.2c0.6,0.6,1,1.9,1,4c0,1.5-0.2,3-0.6,4.5
					c-0.4,1.5-0.9,2.6-1.5,3.3c-0.9,0.2-3.6,0.3-8.1,0.3c-2.6,0-5.2-0.3-7.9-0.8c-2.7-0.5-4.2-1-4.5-1.5c-0.2-0.6-0.2-2-0.2-4.2
					c0-4,0.2-6.1,0.6-6.4c2.1-0.5,3.5-0.7,4.1-0.7c0.7,0,1.4,0.1,1.9,0.2c-0.9-0.7-1.3-4.4-1.3-11c0-2.3,0.1-3.6,0.2-3.9
					c-0.6,0.1-1.2,0.2-1.7,0.2c-1.8,0-3.1-0.5-3.8-1.4C466.6,108.6,466.5,107.2,466.5,104.7z"/>
			</g>
		</g>
	</g>
</g>
</svg>
