<?xml version="1.0" encoding="utf-8"?>
<!-- Generator: Adobe Illustrator 23.1.1, SVG Export Plug-In . SVG Version: 6.00 Build 0)  -->
<svg version="1.1" id="Layer_1" xmlns="http://www.w3.org/2000/svg" xmlns:xlink="http://www.w3.org/1999/xlink" x="0px" y="0px"
	 viewBox="0 0 648.2 681.6" style="enable-background:new 0 0 648.2 681.6;" xml:space="preserve">
<style type="text/css">
	.st0{display:none;opacity:0.5;fill:url(#SVGID_1_);enable-background:new    ;}
	.st1{fill:#FCFCFC;}
	.st2{fill:#FFFFFF;}
	.st3{fill:#FFB412;}
	.st4{fill:#F2D040;}
	.st5{font-family:'Gorditas-Bold';}
	.st6{font-size:64.97px;}
	.st7{font-size:72.8332px;}
	.st8{letter-spacing:-4;}
	.st9{fill:#90706B;}
	.st10{fill:#8587BA;}
	.st11{fill:#0A0C1D;}
	.st12{fill:#8E716D;}
	.st13{fill:#9C7C70;}
	.st14{fill:#9E796B;}
	.st15{fill:#1D2132;}
	.st16{fill:#0C0E1B;}
	.st17{fill:#585871;}
	.st18{fill:#7B7EAB;}
	.st19{fill:#D2750E;}
	.st20{fill:#C27833;}
	.st21{fill:#C3771A;}
	.st22{fill:#C87417;}
	.st23{fill:#CB750F;}
	.st24{fill:#C57517;}
	.st25{fill:#D3760B;}
	.st26{fill:#7A7FAA;}
	.st27{fill:#B47838;}
	.st28{fill:#161729;}
	.st29{fill:#C7761A;}
	.st30{fill:#C6761C;}
	.st31{fill:#151729;}
	.st32{fill:#DD7904;}
	.st33{fill:#472504;}
	.st34{fill:#4F1F05;}
	.st35{fill:#300601;}
	.st36{fill:#5E2004;}
	.st37{fill:#C7762A;}
	.st38{fill:#CD7B2C;}
	.st39{fill:#3A1801;}
	.st40{fill:#C17A34;}
	.st41{fill:#673007;}
	.st42{fill:#2E0D01;}
	.st43{fill:#2C314C;}
	.st44{fill:#E5BB07;}
	.st45{fill:#DDDDDD;}
</style>
<title>croqueta</title>
<g>
	<g id="quiz">
		
			<radialGradient id="SVGID_1_" cx="-46.8918" cy="424.9557" r="134.5566" gradientTransform="matrix(1.94 0 0 -1.12 405.31 855.96)" gradientUnits="userSpaceOnUse">
			<stop  offset="0.49" style="stop-color:#FFB412"/>
			<stop  offset="0.57" style="stop-color:#FFC444"/>
			<stop  offset="0.69" style="stop-color:#FFD986"/>
			<stop  offset="0.79" style="stop-color:#FFE9BA"/>
			<stop  offset="0.88" style="stop-color:#FFF5E0"/>
			<stop  offset="0.95" style="stop-color:#FFFCF7"/>
			<stop  offset="1" style="stop-color:#FFFFFF"/>
		</radialGradient>
		<ellipse class="st0" cx="314.3" cy="380.8" rx="260.9" ry="151.1"/>
		<path class="st1" d="M323.3,485.3c-6.3,0-12-3.3-15.1-8.7l-29.5-51.1H171.2c-15.9,0-28.8-12.9-28.8-28.8v-228
			c0-15.9,12.9-28.8,28.8-28.8h304.1c15.9,0,28.8,12.9,28.8,28.8v228c0,15.9-12.9,28.8-28.8,28.8H367.9l-29.5,51.1
			C335.3,482,329.5,485.4,323.3,485.3z"/>
		<path class="st2" d="M475.3,143.6c13.8,0,25,11.2,25,25v228c0,13.8-11.2,25-25,25l0,0H365.7l-30.6,53c-3.8,6.5-12.1,8.8-18.7,5
			c-2.1-1.2-3.8-2.9-5-5l-30.6-53H171.2c-13.8,0-25-11.2-25-25v-228c0-13.8,11.2-25,25-25L475.3,143.6 M475.3,136H171.2
			c-18,0-32.6,14.6-32.6,32.6v228c0,18,14.6,32.6,32.6,32.6h105.2l28.4,49.2c5.9,10.2,18.9,13.7,29.1,7.8c3.2-1.9,5.9-4.6,7.8-7.8
			l28.4-49.2h105.2c18,0,32.6-14.6,32.6-32.6v-228C507.9,150.6,493.3,136,475.3,136L475.3,136z"/>
		<path d="M468.6,404.3H333.1c-1.1-0.1-1.9-1-1.8-2.1c0.1-1,0.8-1.7,1.8-1.8h135.4c1.1,0,2,0.9,2,1.9
			C470.5,403.4,469.7,404.2,468.6,404.3C468.7,404.3,468.6,404.3,468.6,404.3z M242.8,404.3h-64.8c-6.8,0-12.3-5.5-12.3-12.3v-92
			c-0.1-1.1,0.7-2,1.8-2.1c1.1-0.1,2,0.7,2.1,1.8c0,0.1,0,0.2,0,0.3v92c0,4.7,3.8,8.4,8.4,8.5h64.8c1.1,0.1,1.9,1,1.8,2.1
			C244.6,403.4,243.8,404.2,242.8,404.3L242.8,404.3z M478.9,209.4c-1.1,0-2-0.8-2-1.9c0,0,0,0,0-0.1v-34.1c0-4.7-3.8-8.4-8.4-8.4
			h-64.8c-1.1-0.1-1.9-1-1.8-2.1c0.1-1,0.8-1.7,1.8-1.8h64.8c6.8,0,12.3,5.5,12.3,12.3v34.1C480.8,208.5,480,209.3,478.9,209.4z
			 M313.4,164.9h-80.2c-1.1,0-2-0.9-2-2c0-1.1,0.8-1.9,1.9-1.9c0,0,0,0,0,0l0,0h80.2c1.1-0.1,2,0.7,2.1,1.8c0.1,1.1-0.7,2-1.8,2.1
			C313.6,164.8,313.5,164.8,313.4,164.9L313.4,164.9z"/>
		<path class="st3" d="M219.9,160.5c-2.8-5.6-6.8-10.6-11.7-14.4c-5.3-4.1-11.2-7.1-17.6-9c-7.2-2.1-14.7-3.2-22.1-3.1
			c-7.8-0.1-15.6,1-23.1,3.1c-6.8,1.9-13.1,5-18.7,9.2c-5.3,3.9-9.6,9-12.6,14.8c-3.1,6.1-4.7,12.8-4.6,19.7c0,1.4,0.1,2.8,0.2,4.2
			c0.1,1.2,0.2,2.4,0.4,3.7l0.4,4.1h46.1l-0.8-5.2c-0.1-0.7-0.1-1.3-0.1-2v-2.7c0-1.8,0.1-3.6,0.4-5.4c0.2-1.3,0.6-2.6,1.3-3.8
			c0.6-0.9,1.4-1.7,2.3-2.2c1.4-0.6,2.9-0.9,4.4-0.9c1.2,0,2.5,0.2,3.6,0.7c1,0.5,2,1.2,2.7,2c0.8,0.8,1.3,1.8,1.7,2.9
			c0.4,1.2,0.6,2.5,0.6,3.8c0,1.9-0.4,3.7-1.3,5.3c-1.2,2.1-2.6,4-4.2,5.7c-1.9,2-3.8,3.9-5.9,5.8c-2.3,2-4.5,4.1-6.5,6.2
			c-2.1,2.1-3.9,4.5-5.5,7.1c-1.7,2.8-2.5,5.9-2.5,9.1v18.8h43.2v-13c0.2-0.8,0.6-1.5,1.2-2c1.8-1.8,3.8-3.4,5.8-4.9
			c2.6-1.9,5.3-3.9,8.3-6.1c3.2-2.4,6.2-5.2,8.8-8.1c2.8-3.2,5.2-6.7,7-10.6c2-4.4,3.1-9.2,3-14.1
			C224.1,172.8,222.7,166.3,219.9,160.5z"/>
		<rect x="146.8" y="247.6" class="st3" width="43.6" height="41.3"/>
		<path d="M168.4,138.9c7-0.1,14,0.9,20.7,2.9c5.8,1.7,11.2,4.4,16,8.1c4.4,3.4,7.9,7.8,10.3,12.8c2.5,5.2,3.7,10.9,3.7,16.7
			c0.1,4.1-0.8,8.2-2.5,11.9c-1.6,3.4-3.8,6.6-6.3,9.4c-2.5,2.8-5.2,5.3-8.1,7.5c-2.9,2.2-5.7,4.3-8.2,6.1c-2.3,1.6-4.4,3.4-6.4,5.4
			c-1.6,1.4-2.5,3.3-2.6,5.4v8.1h-33.4v-13.9c0-2.3,0.6-4.6,1.9-6.6c1.3-2.2,3-4.3,4.8-6.2c2-2,4-4,6.2-5.9s4.3-4,6.3-6.1
			c1.9-2,3.5-4.3,4.9-6.7c1.3-2.3,2-5,2-7.7c0-1.8-0.3-3.7-0.9-5.4c-0.6-1.7-1.5-3.2-2.6-4.6c-1.2-1.3-2.6-2.4-4.3-3.1
			c-1.8-0.8-3.7-1.2-5.7-1.2c-2.4-0.1-4.7,0.4-6.8,1.5c-1.7,0.9-3.1,2.3-4.1,3.9c-1,1.7-1.7,3.5-2,5.5c-0.3,2.1-0.5,4.1-0.5,6.2v2.7
			c0,0.8,0.1,1.6,0.1,2.3h-36c-0.1-1.2-0.2-2.3-0.4-3.5c-0.1-1.2-0.2-2.5-0.2-3.7c-0.1-6,1.3-12,4.1-17.4c2.7-5.2,6.6-9.7,11.3-13.2
			c5.2-3.8,11-6.7,17.1-8.4C153.8,139.8,161.1,138.8,168.4,138.9 M168.4,134c-7.8-0.1-15.6,1-23.1,3.1c-6.8,1.9-13.1,5-18.7,9.2
			c-5.3,3.9-9.6,9-12.6,14.8c-3.1,6.1-4.7,12.8-4.6,19.7c0,1.4,0.1,2.8,0.2,4.2c0.1,1.2,0.2,2.4,0.4,3.7l0.4,4.1h46.1l-0.8-5.2
			c-0.1-0.7-0.1-1.3-0.1-2V183c0-1.8,0.1-3.6,0.4-5.4c0.2-1.3,0.6-2.6,1.3-3.8c0.6-0.9,1.4-1.7,2.3-2.2c1.4-0.6,2.9-0.9,4.4-0.9
			c1.2,0,2.5,0.2,3.6,0.7c1,0.5,2,1.2,2.7,2c0.8,0.8,1.3,1.8,1.7,2.9c0.4,1.2,0.6,2.5,0.6,3.8c0,1.9-0.4,3.7-1.3,5.3
			c-1.2,2.1-2.6,4-4.2,5.7c-1.9,2-3.8,3.9-5.9,5.8c-2.3,2-4.5,4.1-6.5,6.2c-2.1,2.1-3.9,4.5-5.5,7.1c-1.7,2.8-2.5,5.9-2.5,9.1v18.8
			h43.2v-13c0.2-0.8,0.6-1.5,1.2-2c1.8-1.8,3.8-3.4,5.8-4.9c2.6-1.9,5.3-3.9,8.3-6.1c3.2-2.4,6.2-5.2,8.8-8.1
			c2.8-3.2,5.2-6.7,7-10.6c2-4.4,3.1-9.2,3-14.1c0.1-6.5-1.4-13-4.2-18.9c-2.8-5.6-6.8-10.6-11.7-14.4c-5.3-4.1-11.2-7.1-17.6-9
			C183.4,134.9,175.9,133.9,168.4,134L168.4,134z"/>
		<path d="M185.5,252.5V284h-33.8v-31.5H185.5 M190.4,247.6h-43.6v41.3h43.6V247.6L190.4,247.6z"/>
		<polygon points="370.5,435.3 403.9,508.6 411.2,492.4 		"/>
		<polygon points="262.4,447.3 252.9,529.2 267.9,518.8 		"/>
		<polygon points="509.6,200.7 603.7,158.3 582.9,148.8 		"/>
		<polygon points="218.2,359.4 53.1,470.7 64.8,484.5 		"/>
		<polygon points="391.4,117.2 461.1,38.9 444.1,29.6 		"/>
		<polygon points="70.2,36 175.5,123.9 55.3,0 		"/>
		<path d="M506.6,301.8c1.4,0.6,97.7,19.8,97.7,19.8l26-12.7L506.6,301.8z"/>
		<polygon points="277.1,92 253.3,12.3 240.4,16.5 		"/>
		<polygon points="137.5,286.3 0,269.2 5,290.8 		"/>
		<polygon points="607,526.3 488.1,435.8 625,564.7 		"/>
		<g id="TEXTO">
			
				<image style="overflow:visible;opacity:0.3;enable-background:new    ;" width="186" height="123" xlink:href="AD7B9371EC36A938.png"  transform="matrix(1 0 0 1 220.15 145.48)">
			</image>
			<text transform="matrix(0.9999 1.239152e-02 -1.239152e-02 0.9999 234.67 221.54)" class="st4 st5 st6">QUÉ</text>
			<text transform="matrix(0.9999 1.239152e-02 -1.239152e-02 0.9999 232.81 219.68)" class="st5 st6">QUÉ</text>
			
				<image style="overflow:visible;opacity:0.3;enable-background:new    ;" width="468" height="161" xlink:href="AD7B9371EC36A939.png"  transform="matrix(1 0 0 1 180.15 201.48)">
			</image>
			<text transform="matrix(0.996 -8.963770e-02 8.963770e-02 0.996 199.8994 314.8197)" class="st4 st5 st7">CROQUE</text>
			<text transform="matrix(0.996 -8.963770e-02 8.963770e-02 0.996 512.5994 286.6767)" class="st4 st5 st7 st8">T</text>
			<text transform="matrix(0.996 -8.963770e-02 8.963770e-02 0.996 561.7095 282.2568)" class="st4 st5 st7">A</text>
			<text transform="matrix(0.996 -8.963770e-02 8.963770e-02 0.996 198.0494 312.9595)" class="st5 st7">CROQUE</text>
			<text transform="matrix(0.996 -8.963770e-02 8.963770e-02 0.996 510.7494 284.8165)" class="st5 st7 st8">T</text>
			<text transform="matrix(0.996 -8.963770e-02 8.963770e-02 0.996 559.8595 280.3966)" class="st5 st7">A</text>
			
				<image style="overflow:visible;opacity:0.3;enable-background:new    ;" width="254" height="115" xlink:href="AD7B9371EC36A93F.png"  transform="matrix(1 0 0 1 238.15 315.48)">
			</image>
			<text transform="matrix(1 0 0 1 253.05 384.73)" class="st4 st5 st6">ERES?</text>
			<text transform="matrix(1 0 0 1 251.2 382.88)" class="st5 st6">ERES?</text>
		</g>
		<g id="croq">
			<g id="croquet">
				<path class="st9" d="M208.7,547.7c0-11.6-0.5-23.2,0-34.7c0.6-13.2-2.7-25.7-4.9-38.5c-0.7-4.7-0.9-9.5-0.7-14.2
					c0-1.3,0.5-2.6,1.4-3.5c6.7-6.3,9-14.8,11.7-23c1.9-5.8,5.1-9.3,11.4-10.5c6.9-1.3,12.2-4.7,15.5-11.7
					c5.1-10.7,13.9-16.8,26.4-16.6c1.4,0,2.8-0.2,4.2-0.6c10.6-3.7,21.8-5.4,33-5c5,0.2,10,0.1,14.4-3.1c1.6-1.2,3.9-1.3,6-1.2
					c10.9,0.3,21.8,1.9,32.3,4.9c10.2,2.9,18.1,8.9,25.7,15.7c5.1,4.6,10.9,8.1,16.7,11.7c1.9,0.9,4.8,0.6,4.7,3.9
					c-1.7,2.5-3.7,0.7-5-0.2c-7.2-4.3-14.4-8.5-20.8-14c-5-4.4-10.2-8.7-16.5-11.3c-2-0.9-4.1-1.6-6.2-1.9c-3.2,0.5-4.6-3-7.6-3.2
					c-5.2-0.2-10.5-0.8-15.6-1.6c-6.2-1.2-11.1,1.2-16.6,2.3c-5.9,1.2-12,1.6-18,1.2c-6.3-0.4-12.8,0.1-18.9,2.6
					c-4.7,1.6-9.6,2.4-14.6,2.6c-5,0.1-8.6,3.4-12.7,6.2c-4.7,3.1-6.9,7.3-9.2,11.9c-1.3,2.6-3.9,4.3-5.5,6.9
					c-0.5,0.3-1.1,0.5-1.6,0.6c-4.2,1.1-8.2,2.8-12.5,4c-3,0.9-4.7,3.8-5.8,6.8c-2.1,5.9-3.6,12-6.5,17.6c-0.4,1.4-1.5,2.3-2.2,3.5
					c-3.9,3.2-5,6.7-4.4,12.3c0.9,9.8,3.3,19.2,4.2,28.9c0,0.5,0,0.9,0,1.4c0.4,8.8,0.5,17.7,0.3,26.4c-0.1,7.9,0.6,15.8,0.4,23.7
					C210.3,548.8,209.4,548.8,208.7,547.7z"/>
				<path class="st10" d="M196.4,474.6h4.1v0.8"/>
				<path class="st11" d="M208.7,547.7l1.8-0.4c1.8-0.1,2.2,1,2,2.5c-0.4,1.2-1.4,1.3-2.5,1.3c-8.9,2.4-17.5,2.7-25.6-2.7
					c-2-1.3-3.9-2.9-5.6-4.7c-5-5.2-10.1-10.2-15.5-15c-4.3-3.8-9.3-6.9-14.7-9.1c-1.2-0.5-3.6-0.8-2.8-2.8s2.4,0,3.6,0.2
					c0.7,0.1,1.4,0.8,2.4,0.2c-0.3-1.6-1.7-2.6-2.6-4c-0.5-0.8-1.5-1.8-0.4-2.7s1.8,0.3,2.4,1c1.7,1.9,2.6,4.4,5.2,5.8
					c1.2-1.7,0.8-3.7,1.3-5.4c0.2-0.8,0.6-1.6,1.5-1.5s1,1,1,1.8c0,0.5,0,1-0.2,1.5c-2.1,5.8,0.2,9.4,5,12.8
					c6.8,4.8,11.8,11.8,18.2,17.2C190.9,550.2,199.5,551.1,208.7,547.7z"/>
				<path class="st12" d="M405.6,421.4c-0.4-2.2-2.3-3-3.9-4c3.5-0.2,5.5,2.3,7.8,4.4c6.1,5.8,10.5,12.3,9.3,21.3
					c-0.9,7.2,1.8,14.2,1.8,21.4c0,3.4,2.7,6,4,9.1c3.2,8,2.4,16.1,1.2,24.3c-0.4,2.8-0.5,5.5,1.3,7.7c5.8,6.9,8.2,14.6,6.4,23.6
					c-0.1,1.2-0.1,2.3,0,3.5c-0.5,0.8-1.6,1.1-2.5,0.7c-2.3-2.3-0.8-5.1-0.7-7.5c0.4-6.5-0.7-12.3-5.1-17.3c-3-3.2-4-7.7-2.8-11.8
					c2.7-9.3,1.8-18-3.3-26.3c-0.4-0.8-0.7-1.7-0.8-2.5c-1.4-3.2-1.9-6.7-1.6-10.1c0.5-3.7-1.6-6.9-1.7-10.5c-0.1-2.7-0.6-5.3-0.7-8
					c-0.1-4.6-2.4-8.2-5.4-11.6C407.5,425.8,404.7,424.5,405.6,421.4z"/>
				<path class="st13" d="M210,551.1l1.3-0.7c3.1,1.5,3.8,3.7,3.5,7.1c-0.4,5.1,1.4,10.1,1.5,15.2c0,1.6,0.5,3.3,0.4,4.9
					c-0.3,5.2,2,9.9,3,14.8c0.7,3.2,3.4,5,5.2,7.4c0.3,0.6,0.5,1.1,0.8,1.7c0.2,0.7,0.2,1.5,0.5,2.3c3.2,4.1,5.9,8.7,10.1,12
					c1.2,1,2.1,2.2,3.2,3.2c7.9,6.8,16.9,12.1,26.7,15.9c2.8,1.8,5.8,3.1,8.9,4c3.5,1.8,7.6,1.7,11.1,3.5c1.1,0.5,2.1,0.9,2.3,2.2
					c0.4,1.1,0,2.3-1,2.9c-2.3,0.3-4.1-2.4-6.5-0.9c-4.8-2.2-10-3.6-15-5.5c-1.2-0.4-2.4-0.9-3.4-1.6c-3-1.3-5.8-3.2-8.9-4.3
					c-1.1-1-2.2-2.1-3.2-3.3l-0.1-0.5c-5.1-3.9-10.3-7.6-15.2-11.8c-10.2-8.9-16.5-20.5-21.2-33C214.4,574.6,213,562.6,210,551.1z"
					/>
				<path class="st14" d="M426.5,584.2c-1.7,4.6-5.2,7.9-9,10.8c-3.7,2.8-6.9,6.2-9.4,10.1c-0.9,1.4-2.1,2.6-3.6,3.3
					c-8.7,3.9-13.9,11-18.2,19.1c-0.6,4.5-4.6,7.7-8.7,7c-0.3-0.3-0.6-0.6-0.7-1c0.1-2.2,2.3-2.8,3.3-4.3c2.5-3.6,6-6.4,7.8-10.4
					c3.2-4.7,7-8.8,12.2-11.4c4.8-2.4,7.1-7.1,10.3-10.9c2.3-2.8,5.1-5.2,8.3-7c1.8-1,3.1-2.7,3.4-4.7c1.3-6.5,3.7-12.8,4.8-19.4
					c1.4-7.8,1.2-15.7,2.7-23.5c0.5-2.3,0.5-4.8,1.9-6.9c1.8-0.3,2.5,0.6,2.5,2.3c-2,6.5-2.2,13.3-3.2,20
					C429.9,566.5,429.1,575.5,426.5,584.2z"/>
				<path class="st15" d="M434.3,537.4l-2.1-1.4c-2-0.8-2.7-1.9-0.7-3.5l2,0.2c5.4,4.4,11.4,3.8,17.5,2.2
					c11-2.8,16.6-10.9,20.2-20.9c0.9-2.5,1.6-5.1,2.4-7.7c0.9-1-0.1-2.5,0.9-3.5c1-0.5,1.9-1.5,3.1-0.4c-2.2,8.6-4.3,17.2-9.8,24.4
					c-7.9,10.3-18.4,13.7-31,11.1C436,537.7,435.1,537.6,434.3,537.4z"/>
				<path class="st16" d="M477.6,502.4c-1.1,0.3-0.9,2.1-2.2,2c-0.1,0-0.2-0.9-0.3-1.4c-0.7-4.5,0.2-9-0.7-13.5
					c-0.3-0.7,0-1.5,0.7-1.9c0.8-0.5,1.9-0.3,2.4,0.5c0.1,0.1,0.1,0.2,0.2,0.3c1.8,3.1,1.5-0.3,2.2-0.7c2.3-1.4,2.8-0.4,2.3,1.8
					c-0.5,2.6-1.8,5-1.8,7.7c1.7,0.5,2.6-0.7,3.8-1c0.8-0.2,1.6-0.4,2,0.5s-0.3,1.4-1,1.8L477.6,502.4z"/>
				<path class="st17" d="M479.8,487.7c-0.2,1.6-0.4,3.2-1.6,4.5c-2-0.8-0.3-4.3-2.3-3.8c-2.2,0.6-0.6,3.3-0.8,5.1
					c-0.3,3.2,0.6,6.4,0,9.5l-1.5,3.2c0.8-5.4,1-10.9,0.5-16.3c-0.3-2.5,1.1-3.3,3.3-2.3C478.1,488.1,479,488.2,479.8,487.7z"/>
				<path class="st18" d="M378,633.9c3.6-1,5.5-4.3,8.3-6.4c4.1,0.5,8,1.8,12.2,1.4c0.5,0,1,0.1,1.5,0.3c8.7,3.9,17.7,7.2,25.8,12.5
					c3.3,2.1,3.9,11.5,1.3,15c-4.5,5.9-10.7,9.1-17.5,11.4c-19.5,6.7-39.7,9.8-60.2,12.2c-17.2,2.1-34.4,0.7-51.6,1.4
					c-3.2,0.1-6-1.2-9.1-1.5c-13-1.4-26-2.8-38.8-5.8c-8.3-2-16.5-4.9-23.7-9.8c-4.8-3.2-8-7.6-6.7-13.7c1-5,5.2-7.6,9.3-10.1
					c6.8-4,14.4-6,21.5-9.4l0,0c1.1,1.1,2.5,1.8,4,2.3l9.1,4c1.4,3.2,1,4.8-1.7,4.5c-3.6-0.3-4.8,2-6,4.3c-1.6,3.2-4,4.1-7.2,3.7
					c-7-0.9-13.8,0-20.7,1c-3.3,0.5-4.1,2.3-2.5,5.2c1.5,2.7,3.7,5,6.3,6.7c2.7,1.8,4.9,2,8-0.2c4.4-3.2,9.8-1.7,14.9-1.2
					c0.1,0,0.3,0.1,0.3,0.2c2.6,6.4,8.4,3.6,12.9,4.7c0.4,0.1,0.7,0.2,1,0.4c1.9,0.9,3.9,1.3,5.9,1.2c1.9,0.5,4,0.7,5.2,2.3
					c2.3,3.1,4.6,1.2,6.6,0c1.2-0.7,2.2-1.6,3-2.8c0-1.7-0.3-3.5-0.8-5.1c-1.3-4.9-0.2-9.7,0.7-14.5c0.4-2.4,2-2.6,3.6-0.6
					s3.4,4.1,3.5,6.7c0.2,2.8,1.8,3.5,3.9,4.1c3.4,3.9,2.2,10.5-2.6,14.5c2-0.9,3.2,0.3,4.3,1.5c1.2,1.3,2.9,2.2,4.7,2.4
					c10.5,1,21,1,31.5,0c2.8-0.2,4.1-1.8,4.3-4.5c0.1-2-0.1-4.1,0.2-6.2c0.4-2.7,1.6-4.4,4.7-4.6c9.2-0.7,9.2-0.8,10.9-9.8
					c0.1-0.4,0.3-0.7,0.5-1c0.8-0.8,2-1.2,1.9-2.6c0.1,1.2-0.8,1.7-1.5,2.3c-4,1.7-8.2,1.1-12.4,1.5c-1,0-2-0.6-2.5-1.6
					c-2.2-2.4-4.9-1.8-7.6-1.3c-4,1.3-7.8,3.4-12.3,3c-1.7,0-3.2-1.3-3.4-3c-0.5-1.8,1-2.4,2.3-3.2s2-2.3,3.8-2.1h9.9
					c4.1,0,8.1,0.2,12-1.6c3-1.2,6.2-1.8,9.4-1.6c4.2,0.1,7.7-2.6,11.8-3c2.3-0.2,4.1-0.3,5.2,1.9c0.2,0.6,0.2,1.3,0,1.9
					c0,0.1,0,0.3-0.1,0.3c-3.3,3-3.3,3,0,5.5c0.4,2.7-0.2,5.5,0.9,8.1c0.6,4.9,5.3,5.3,8.4,7.3c1,0.6,2.3,0.3,3-0.7
					c0.4-0.6,0.4-1.3,0.2-1.9c-1.4-1.6-2.7-0.1-4,0.2c-3.9,0.8-5.2,0.4-6.8-3.3c-2.6-5.9-1.4-12.1-1-18.2
					C376.1,636.7,375.6,634.7,378,633.9z"/>
				<path class="st19" d="M405.6,421.4c6.2,5.4,10.9,11.2,11.2,20.3c0.3,8.6,0.3,17.4,2.8,25.9c0.6,1.2,0.2,2.4,0.5,3.6
					c-2,2.3-2.9,0.3-3.6-1.2c-1.3-2.7-2-5.6-2-8.6c0-4.5-0.5-4.9-4.8-3.9c-3,0.7-4.7-1.1-6-3.2c-1.6-2.5-0.9-8.4,1.3-10.5
					s1.9-2.9-0.5-4.3s-4-2.9-7-1.6c-2.1,0.9-6.6-2.8-7.4-5.7c-0.6-1.8-0.9-3.8-1-5.7c0-5.4-1.5-7.5-6.8-8.4c-3.5-0.6-6-1.6-7-5.4
					c-0.6-2.3-2.7-3.7-5.2-4.2c-3.3-0.6-6.5-1.6-9-4.1c-1.3-1.2-3-1.2-4.7-1.5c-4.9-0.7-10,0-14.5-2.9c-2.1-1.3-4.8-0.6-7.2-0.6
					c-9.5-0.3-19-0.2-28.5,0.5c-0.9,0-1.8,0.1-2.7,0.4c-6.4,3.2-13.7,3.1-20.3,5.2c-8.6,2.7-17.6,6.4-20.5,16.7
					c-1,3.6-6,5.8-9.3,4.1c-1.8-0.9-2.9-0.5-4,0.9c-0.5,0.7-1.1,1.4-1.7,2.1c-3.8,4.6-5.6,4.9-10.7,1.6c-0.4-1.2-1.2-2.1-2.3-2.7
					c-1.5-0.7-1.5-1.9-1.2-3.2c0.2-0.6,0.5-1.1,1-1.5c2.3-0.8,5.5-0.2,5.9-3.9c0.2-0.3,0.5-0.6,0.8-0.8c4.1-1.4,5.6-5.7,8.8-8.2
					c0.8-0.6,1.2-1.8,2.2-2c7.1-1.4,12.4-6.5,18.7-9.6c3.4-1.7,7.1-1.3,10.1-2.5c3.5-1.5,7.2-2.2,11-2c3.9,0.3,6.2-2.7,9.5-3.2
					c3.3,0,6.6,0,9.9,0c3.6,0.2,7.1-0.7,10.2-2.5c2.2-1.4,4.7-2,7.3-1.7c3.6,3.9,7.9,2.4,12.1,1.5c6.1,0.2,11.8,2.4,17.8,3
					c6.7,2.2,13,5.2,18.3,10.1C386,409.7,395.8,415.6,405.6,421.4z"/>
				<path class="st20" d="M223.3,601.9c-4.5-6.2-7.6-13-7.8-20.8c-0.3-10.4-1.7-20.7-4.2-30.8c0.3-1.1,0-2.2-0.8-3
					c-2.1-11.3-0.9-22.8-1-34.2c-0.1-5.4-0.1-10.8-0.1-16.2c2.4-0.4,3.6,0.8,4,3c0.2,1.5,0.3,3,0.3,4.6c0,6.3-0.5,12.6-0.8,18.8
					c-0.5,7.8,0.1,15.7,1.6,23.3c2.2,10.5,4.4,21.1,5,31.9c-1.9,4.5-0.3,8.4,1.9,12.3c1.2,2.4,2.3,4.9,3.1,7.5
					C224.9,599.8,225,601.1,223.3,601.9z"/>
				<path class="st21" d="M329.9,388.1c-2.6-0.3-5.2,0.3-7.4,1.6c-4.5,2.9-9.7,2.1-14.7,2.2l-6.6,0.1c-3.8,3.7-9,2.1-13.4,3.6
					c-2,0.7-4.5-0.4-6.4,1.3c-0.5,0.5-1.5-0.1-2-0.7c-0.5-1.1,0.2-1.6,1-2.1c8.7-3.3,17.9-2.9,27-3.1c5.3-0.1,10.5-0.3,15.2-3.1
					c2.2-1.2,4.7-1.7,7.1-1.3c9.9,1.3,20,1.7,29.5,5.2c-6.4,0.7-12.3-2.4-18.6-2.3C337,389.9,333.2,390.7,329.9,388.1z"/>
				<path class="st20" d="M280.4,394.2l-0.8,1.6c-1.5,2.2-4.1,1.6-6.1,2.7c-2.8,1.2-5.9,1-8.7,1.7c-1.2,0.2-2.4,0.9-3.3,1.8
					c-2,1.2-4.9,0.6-6.2,3.2c-1.3,0.6-2.4,1.4-3.2,2.5c-1.5,1.1-2.6,2.7-3.2,4.5c-2.7,2.2-3.6,6.2-7.1,7.6c0,0.2-0.1,0.5-0.1,0.7
					c-1,0.7-1.4,2.6-3.2,1.5c6.1-8.9,10.2-19.5,21.3-23.9c1.4-0.7,2.8-1.1,4.4-1.3C269.8,396.8,275.2,395.9,280.4,394.2z"/>
				<path class="st20" d="M235.6,424.3l-0.8,0.7c-1.3,2.1-3.6,2.6-5.6,3.8c-2.4,0.5-4.8,1-6.2,3.5c-0.8,0.9-1.3,2-1.6,3.2
					c-0.7,2.4-2.1,4.7-2.3,7.3c-1.3,2.1-2.2,4.4-2.8,6.8c-1.1,2-2.4,3.4-4.8,1.6c2.8-6.1,4.7-12.5,7-18.7c1.2-3.5,4.1-6.1,7.7-6.9
					c3.7-1,7.3-2.3,10.9-3.5C237.9,423.8,236.2,423.7,235.6,424.3z"/>
				<path class="st20" d="M209.3,496.4c-1.7-10.1-3.3-20.3-5-30.4c-0.9-5.3,2-8.8,5.1-12.3c2.4,1.1,0.5,2.8,0.6,4.2
					c0,0.4,0,0.8-0.2,1.1c-0.9,1.4-1.5,3-1.8,4.7c-0.6,2.2,0.1,4.3,0.7,6.4c0.9,3.6-0.1,7.3,0.4,10.9c1,4,1.9,8.1,1.5,12.3
					C210.4,494.5,210.7,495.8,209.3,496.4z"/>
				<path class="st22" d="M207.9,457.6c0.9-1.1,1.4-2.5,1.5-3.9c0.2-1.3,1.4-1.7,2.3-2.4c1.6-0.4,2-2.2,3.2-3
					c2.1,2.2,2.2,5.7,0.2,8.1C212.6,458.8,210.1,459.3,207.9,457.6z"/>
				<path class="st23" d="M235.6,424.3c0.5-0.7,1-1.5,1.6-2.2l1.4-0.3l3.2-1.5C240.9,423.5,238.9,425,235.6,424.3z"/>
				<path class="st22" d="M209.3,496.4l0.3-3.3c0.4-0.2,1-0.2,1.4,0c2.4,2.5,2.9,5.5,2.6,8.7c-0.1,1.3-0.3,2.6-1.9,2.9
					c-1.4-2.4,0.2-5.7-2.3-7.7C209.3,496.8,209.3,496.6,209.3,496.4z"/>
				<path class="st24" d="M419.5,471.5c0-1.3,0.1-2.6,0.1-3.9c0.9,1.8,1.8,3.7,2.7,5.5c3.8,7.4,4,15.1,1.9,22.9
					c-1.2,4.7-0.6,8.8,2.7,12.6c3.8,4.5,5.7,10.3,5.1,16.1c-0.2,2.6-0.3,5.1-0.4,7.7c-0.6,1.2-0.3,2.6,0.7,3.5
					c-0.9,6.2-1.9,12.4-2.6,18.7c-1.1,10.1-2,20.2-5.5,29.8c-1,2.8-2.8,5.2-5.2,6.9c-4.5,3.4-9.1,6.7-11.8,12
					c-1.9,3.6-5.9,4.8-9.1,6.9c-3.8,2.3-6.8,5.6-8.7,9.5c-3.2,5-7.2,9.3-12,12.8c-3,2.5-7,3.4-10.8,2.5c-1.6-3.7-0.3-7.4,4-8
					c5.4-0.7,8.2-5.4,13-6.7c0.7-0.2,1.1-1,1.5-1.7c2.9-4.7,6.2-9,11.2-11.7c1.1-0.7,2-1.6,2.7-2.7c0.4-0.6,0.6-1.5,1.3-1.7
					c5-1.6,6.4-6.3,9.1-9.9c0.9-1.3,2-2.3,3.4-3c3.6-1.6,5.3-4.3,5.8-8.3c0.4-3.5,1.3-6.9,4.3-9.6c1.9-1.7,0.8-4.8,1.4-7.2
					c0.5-2.6,1.2-5.2,2-7.7c1-2.7,1.9-5.5,0.5-8.4c-0.5-1,0-2,0.2-3c0.5-2,0.5-4,0-6c-1.4-2.6,1.4-5,0.1-7.6c-0.2-1,0.1-2,0.8-2.7
					c1.3-1.8,2.3-3.7,1.4-6c-0.6-4-2.7-7.4-5.2-10.5c-3-4.4-5.1-9-4.2-14.5c0.2-1.7,0.1-3.4,0.8-5.1c0.3-0.7,0.5-1.5,0.5-2.3
					c0.2-1.9,0.3-3.8,0.5-5.7c0.3-2.5,0.4-5.2-1.8-7.2C420.1,475.5,416.8,473.8,419.5,471.5z"/>
				<path class="st25" d="M223.3,601.9c-0.4-3.2-1.9-6.2-3.3-9c-2.3-4.3-3.3-9.2-2.9-14.1c1.6-1.1,2.5-0.3,3.3,1.2
					c3.1,6,8.1,10.5,13.1,14.8c1.8,1.5,2.9,3.2,3,5.6c0,2.6,1.1,3.8,3.9,3.1c1.9-0.6,4,0.2,5,1.9c0.6,0.8,1.3,1.6,2.1,2.3
					c2.4,2.3,3.2,2.1,4.2-0.9c1.8-5.6,3.4-7.1,7-6.5c3.1,0.5,3.9,2.6,3.6,8.6c-0.1,2.8-1.6,4.8-3.3,6.8s-1.3,3.3,1.2,3.8
					c3.5,0.6,6.7,1.4,8.4,5.2c0.8,1.8,3,1.7,4.8,1.8c4.1-0.1,8.2,0.9,11.7,3c2.9,1.8,6.6,2.4,10,2.5c9.5,0.5,19,1.5,28.5,0.7
					c3.4-0.3,6.6-0.5,9.3-3.1c1.1-1.1,2.7-1.6,4.3-1.5c3.6,0.2,7.2-0.9,10.2-3c6.8-4.6,15.1-5.6,22.3-9.4c0.9-0.5,2.1-0.6,2.7-1.5
					c3.9-6.1,10.5-8.7,16.1-12.6c0.6-0.4,1.5-0.8,1.7-1.5c0.9-4,4.3-7.2,3.6-11.8c-0.7-5.1,2.1-8.5,6.6-9.3c1.8,1.2,0.2,3.3,1.2,4.7
					c1.9-3.8,1.4-8.2,3.5-11.8c2.4-1,4.8-2.1,7.2-3.3c2.3-0.5,4.6,0.5,6.8,0.8c1.5,0.1,2.7,1.5,2.5,3c0,0.5-0.2,0.9-0.5,1.3
					c-2,3.7-2.8,7.9-4.3,11.8c-0.5,1.5-1.1,3.2-2.5,3.8c-3.1,1.2-5.7,3.6-7.1,6.7c-1.8,4.5-5.5,5.5-8.8,7.7
					c-3.1,2.1-6.4,4.5-7.8,8.3c-0.4,0.8-1.1,1.4-2,1.7c-1.7,0.7-2.9,2.5-2.9,4.4c-0.1,2-0.3,3.3-3.3,3c-3-0.2-6.1,0.6-8.5,2.4
					c-6.4,4.5-14,7-20.7,10.9c-1.5,0.7-3.2,0.7-4.7,0.2c-2.5-0.7-3.5,0-3.4,2.5c0,1.4,0.3,2.8-1.2,3.7c-3.4,0.5-7,0.4-10.2,1.8
					c-7.5,0.9-14.8,2.7-22.4,2.3c-4.5-0.1-8.9,0-13.4,0c-0.4,0-0.8,0-1.2,0c-2.7-3.1-6.4-1.1-9.5-1.8c-2.6,0.2-4.8-1-7.1-1.7
					c-2.6-3.5-6.8-3.3-10.5-4.3c-0.5-0.1-1.1-0.3-1.6-0.5c-5.6-1.5-10.1-5.2-15.1-7.8c-5.4-2.7-10.3-6.4-14.5-10.7
					c-1.3-1.4-2.8-2.5-4.5-3.5c-2-1.9-3.8-3.9-5.6-5.9c-0.6-2.3-2-4.4-4-5.8L223.3,601.9z"/>
				<path class="st26" d="M268.1,668.5c-3.6,0-7.1-0.6-10.8-0.1c-1.8,0.3-3.3-0.4-3.3-2.7c0-0.8-0.3-1.5-0.9-2
					c-2.2-1.7-11.3-0.5-12.7,1.9c-1.1,1.9-2.4,2.1-4.2,1.6c-6.8-1.6-11.2-6.1-14-12.2c-1.5-3.4,0.2-5.6,4-5.9
					c7.9-0.6,15.7-2.1,23.8-1c3,0.4,5.8-4.5,4.3-7.1c-0.5-0.9-0.8-1.6-0.1-2.4c0.6-0.7,1.7-0.9,2.5-0.4c0.8,0.4,1.5,0.9,2.3,1.4
					c2.4,1.4,3.9,0.9,4.4-1.9l17.8,6.8c4.5,2.6,4.9,1.3,3.4,7.6c-0.9,2.9-0.7,5.9,0.6,8.7c0.8,1.7,0.8,3.8-1.2,4.6
					c-3.2,1.3-5.9,3.9-9.8,3.2C272.2,668.3,270.2,668.3,268.1,668.5z"/>
				<path class="st27" d="M279.7,640.6c2.6,0.4,5,2,7.7,1.5c3,0.7,6.4-0.2,9.3,1.5l0,0c4.9,0.6,9.8,0.6,14.7,0
					c7.5,0,14.9-1.5,22.4-2.3c2.7-1.3,5.7-0.5,8.5-1.1c1-0.2,2-0.2,2.6-1.2c0.5-0.4,1.1-0.6,1.8-0.5c4.4,0,8.6-1.3,12.4-3.5
					c2.5-1.5,5-0.2,7.4-0.6l0.6,0.1c8.6-0.7,14.6-5.6,19.7-12c0.8-1,1.4-2.2,2.6-2.7c-2.5,5.7-7,9.6-11.7,13.3
					c-1.4,0.8-1.2,3.1-3.2,3.3c-9.2,2.6-18.7,4.4-28,6.7c-4.9,1.2-10,0.4-14.9,1c-1.1,0.1-2.3-0.3-3.4,0.3l-0.3-0.1l-0.3,0.1
					c-9.9,4.2-20.4,3.6-30.8,3.5c-1.8,0.1-3.6-0.4-5-1.6c-1.6-0.3-3.2-1-4.5-2c-4.3-1.8-9.1-2.1-13.1-4.5c0.4-1,1.3-1.1,2.2-1.1
					C277.9,638.7,278.7,639.8,279.7,640.6z"/>
				<path class="st26" d="M268.1,668.5c0.9-1.4,2.1-2.2,3.9-1.5c2.2,0.9,4.2,0.3,6.3-0.5c5.4-2.1,5.4-2.1,4.1-7.9
					c-0.5-1.9-0.4-3.9,0.4-5.6c1.7-3.3,1.4-6.1-1.5-8.4c2.2,0.1,4.3,0.3,5.7,2.2c0.8,0.6,1.1,1.7,0.8,2.6c-1.5,5.2,0.2,10,1.4,15
					c1,4.1,0.5,4.7-3.7,4.8c0.9,0.2,1.9,0.1,2.7-0.2c1-0.3,1.8-1.5,3.1-0.7c-1.8,4.4-7.6,6.3-11.5,3.8c-1.8-1-3.6-2-5.4-2.8
					C272.3,668.1,270,670.2,268.1,668.5z"/>
				<path class="st28" d="M291.1,668.2c-2.6,3.3-6.3,2.3-9.6,2.4c-0.6,0.1-1.2-0.4-1.3-1c0-0.1,0-0.1,0-0.2c0-1,0.7-1.2,1.5-1.4
					c2.1-0.5,5.1,1.1,6.1-1.7c0.8-2.1-0.6-4.5-1.3-6.7c-1.5-4.4-0.4-8.6,0.4-12.9c0.2-0.8,0.3-1.5,0.5-2.3c0.9-0.6,2.2-0.3,2.7,0.7
					c0.1,0.2,0.2,0.4,0.3,0.6c-1.7,5.5-1.7,11.4,0,16.9C290.1,664.5,290.7,666.4,291.1,668.2z"/>
				<path class="st29" d="M234.1,613.7c3.6,0.5,5.4,3.8,8,5.8c2.9,2.2,5.7,4.5,8.8,6.4c1.4,0.9,2.4,2.1,4.3,2c0.6,0,1.3,0.2,1.8,0.6
					c2.9,3.8,7.1,5.6,11.3,7.5c-0.8,0.7-1.7,0.5-2.6,0.1c-10.2-3.3-18.8-9.4-26.9-16.2c-1.5-1.3-2.9-2.6-4.3-4.1
					C233.8,615.2,233,614.6,234.1,613.7z"/>
				<path class="st20" d="M234.1,613.7c0.8,2.6,3.5,3.9,4.7,6.2c-6-4-10.1-9.7-14.1-15.5c3.3-0.8,2.9,2.3,4.1,3.8L234.1,613.7z"/>
				<path class="st30" d="M265.6,636.1l2.6-0.1h1.5c2.3-0.1,4.2,1.5,6.4,2c0.6,0.2,1,0.8,0.8,1.4c0,0.2-0.1,0.3-0.2,0.4h-2.3
					C271.2,639.1,268.2,637.8,265.6,636.1z"/>
				<path class="st29" d="M228.7,608.2c-1.2-1.4-2.2-3.1-4.1-3.8c-0.2-0.5-0.3-1.1-0.5-1.6C227.3,603.2,228.4,605.4,228.7,608.2z"/>
				<path class="st26" d="M254.3,633.6c-2.1,0.6-3.3-0.4-4-2.3C251.9,631.6,253.3,632.4,254.3,633.6z"/>
				<path class="st31" d="M374.6,635.3c0.3-1.4,1.6-2.4,3.1-2.2c0.1,0.3,0.2,0.5,0.3,0.8c-1.2,6.6-1.7,13.2-0.4,19.8
					c1,5,2.3,5.7,7.1,4.5c1.7-0.6,3.5-0.9,5.2-1.1c2.2,0,2.3,1.2,0.9,2.6c-3.5,3.9-8,2.8-12.1,1.8c-2.4-0.5-3.9-2.8-4.1-5.5
					c-1.3-3-0.1-6.2-0.8-9.3c-2.2-1.8-1.7-3.6,0-5.4l0.2-1.3C375,638.6,372.6,636.7,374.6,635.3z"/>
				<path class="st26" d="M344.6,648.4c2,1.7,4.3,1.1,6.6,0.9c2.9-0.2,5.9-0.1,8.8-0.1c0.3,0.2,0.3,0.3,0.3,0.5s-0.2,0.2-0.3,0.2
					c-0.1,3-0.2,5.9-0.2,8.9s-1.5,4-4,4.1c-2.1,0.2-4.1,0.2-6.2,0.1c-3.7-0.2-5,1.6-5.1,5.1c-0.3,10-0.5,9.5-10.4,10.5
					c-9.7,1-19.2,0-28.9-0.2c-1.8,0-3.2-0.3-4.2-2.1c-1.5-2.7-2.9-1.9-4.1,0.3c-0.6,1.1-1.1,2.7-2.7,2s-0.6-2.2-0.1-3.4
					c0.9-2.3,2.3-4.3,4-6c2.7-2.7,2.6-6.4,1.7-10.1c-0.4-2.3-1.2-4.4-2.2-6.5c-1.5-2.7-0.2-4.6,2.9-4.3c4.6,0.5,9.2,0.3,13.7-0.4
					c3.9-0.6,7.4,1.1,11.1,1.9c4.1-0.3,7.7-2,11.6-3.1C339.1,649.1,342,648.1,344.6,648.4z"/>
				<path class="st26" d="M325.3,649.9c-8.7-0.7-17.2,1.7-26.4,0.3c1.9,3.2,3.9,6,0.9,9c-1.4,0.1-2.7,0.9-3.5,2.2
					c-0.6,0.9-1.4,1.7-2.5,1c-0.8-0.6-0.9-1.6-0.4-2.4c0,0,0,0,0,0c2.9-4.5,0.3-8-2.2-12c-2.8,5.1-0.6,10-0.8,14.8
					c-2.6-5.3-2.6-11.6,0-16.9c12.5,1.3,24.8,0,37.2-1.2c-0.9,0.5-1.7,1.1-2.6,1.5C322.3,647.5,322.5,648.8,325.3,649.9z"/>
				<path class="st26" d="M374.6,635.3c0.2,1.6,0,3.2-0.5,4.8c-1.9-2.8-4.8-1.5-6.6-0.8c-4.4,1.6-9.1,1.3-13.4,2.7
					c-8.5,2.7-17.1,2.6-25.8,2.4c3.1-0.9,6.3-1.4,9.5-1.4c10.8-0.9,21.4-3.2,31.6-6.8C371,635.5,372.8,635.2,374.6,635.3z"/>
				<path class="st26" d="M374.7,656.1c4.2,6.1,4.5,6.2,12,4.2c1.4-0.3,2.8-0.5,4.2-0.6c-2,5-3.7,5.6-8.5,3.4
					c-1.3-0.6-2.7-0.8-4-1.3C376,660.8,373.6,659.5,374.7,656.1z"/>
				<path class="st26" d="M373.9,641.4v5.4c-2.4,1.6-3.5-0.4-3.9-2C369.3,641.9,371.9,641.9,373.9,641.4z"/>
				<path class="st26" d="M344.6,648.4c-3.7,2.4-5.9,2-7.7-1.5C339.5,647.2,342.5,645.5,344.6,648.4z"/>
				<path class="st26" d="M379.7,673.1c-1-0.2-2.6,0.3-2.5-1.4c0.1-1.4,1.5-1.5,2.7-1.5s2.3,0.1,2.3,1.3
					C382.3,673.1,380.8,672.8,379.7,673.1z"/>
				<path class="st26" d="M360,649.9v-0.8c-0.1-0.5-0.3-1-0.5-1.4c-0.6-1.2-2.6-1.5-1.9-3.4c0.2-0.4,0.6-0.6,1-0.4
					c0.1,0,0.2,0.1,0.3,0.2c1.2,1.1,2.6,2.3,2.5,4.1C361.4,648.8,360.5,649.3,360,649.9z"/>
				<path class="st26" d="M247.6,668.5c1.9,0.1,2.5,1.1,3.7,2C249.5,670.8,248.5,670.5,247.6,668.5z"/>
				<path class="st26" d="M268.1,668.5c2.1,0.1,4.2-0.3,6.2,0.8C272.1,669.3,269.9,670.7,268.1,668.5z"/>
				<path class="st32" d="M400.2,579.6c-0.7,1-1.1,2.2-2,2.8c-2.9,2-3.1,4.6-2,7.5c0.8,2.2,0.8,4-1.4,5.3c-0.3,0.2-0.7,0.5-0.8,0.8
					c-1.5,8.8-10.1,9.7-15.5,14.2c-0.5,0.4-1.4,0.6-1.6,1.1c-3,7.7-10.7,7.9-16.9,10.2c-5.1,1.8-9.8,4.4-14.6,6.8
					c-1.5,1-3.3,1.5-5.1,1.5c-2.8-0.3-5.6,0.7-7.6,2.8c-1.9,2-5,1.8-7.7,1.8c-8.4,0.2-16.9,0.1-25.3-0.2c-4.5-0.2-9.3-0.3-12.8-1.9
					c-6-2.8-11.8-4.5-18.3-4.2c-0.9,0-1.6-0.9-1.9-1.8c-1.5-4.8-5.4-4.9-9.3-5c-1.2,0-2.8,0.7-2.8-1.5c0-1.7-1.6-3.5,1.2-4.9
					c3.9-2,5.1-5.1,4.4-9.7c-0.2-1.5-0.6-2.8-2.4-3c-1.5-0.3-2.9,0.6-3.3,2c-0.5,1.7-0.9,3.5-1.2,5.2c-0.3,1.5-0.2,3.4-1.9,4
					c-2,0.7-2.8-1.3-3.9-2.5s-2.3-2.7-3.5-4.1c-1.5-1.8-2.9-2-4.1,0.4c-0.9,1.9-2,2.3-3.1,0c-1.2-2.5-4.1-4.3-2.6-7.8
					c0.3-0.8-0.4-1.8-1.2-2.3c-3.1-2.1-5.1-5.6-7.9-7.6c-3.5-2.5-4.8-5.7-6.7-8.9c-0.4-0.6-0.9-1.2-1.4-1.8
					c-0.5-7.8-1.6-15.5-3.2-23.2c-2.4-12.5-4.8-25.1-2.6-38c0.7-4.2,0.2-8.7,0.3-13c0.6-4-0.7-7.8-1.5-11.6c0-7.9-1.9-15.7-1.6-23.7
					c0.1-1.5,0.9-2.9,2.1-3.8c3.9-3.6,7.8-7.2,7.9-13.1c0-0.7,0.4-1.3,0.9-1.7c4.2-3.5,6.6-8.5,10.2-12.5c0.9-1,1.9-2.3,3.1-2.8
					c1.6-0.5,2.9-1.8,3.3-3.5c0.1-1,1-1.6,2-1.5c5.9,2.4,10.1-1.7,11.1-9.8c1.6,1.1,3.1,2,4.5,3c3,2.2,6.7,1.1,7.3-2.5
					c1.3-7.5,7.3-10.5,13-13.7c1.3-0.7,2.9-1,4.1-2c2.4-2.1,5.1-2.1,8.1-2.5c5.2-0.6,10.8-0.6,15.2-4.3c0.8-0.7,1.8-1,2.8-1
					c11.9-0.1,23.9-0.2,35.8-0.2c1-0.1,2.1,0,3,0.5c4.7,3.5,10.2,2.9,15.5,2.9c1.6-0.1,3.1,0.6,4,1.8c1.8,2.4,4.6,3.9,7.6,3.9
					c4.1,0.1,6.1,2.7,7.3,5.9c0.9,2.4,2.2,3.4,4.7,3.7c2.6,0.3,5,1.4,7,3.1c2,1.7,3.2,3.5,2.3,6.4c-0.7,2.5-0.2,5.2,1.1,7.5
					c1.6,2.9,3.8,3.2,6.8,1.3c0.8-0.5,1.9-1.2,2.4-0.3c1.6,3.2,4.8,4.1,7.3,6c1.2,0.9,2.6,2.2,2.2,3.8s-2.2,0.7-3.3,1
					c-1.6,0.2-2.8,1.6-2.9,3.2c-0.3,2.5-0.7,5.2,1.7,7.2c1.5,1.3,2.8,0.3,4.2-0.5c3.5-2.1,5.2-1.2,5.4,3c0.2,4.9,0.2,9.8,3.2,14.1
					c0.6,1.9,2.5,3.2,2.4,5.4c0.3,4.7,3.1,9,1.5,13.9c0,0.8,0,1.5-0.1,2.3c-1.1,1.3-0.3,3.3-1.5,4.6c-0.7,5.4,1.1,9.9,4.6,13.9
					c0.9,2.7,1.1,5.7,2.8,8.1c0.3,0.4,0.5,1.2,0.2,1.5c-2.2,2.7-0.8,6.3-2.4,9c-1.1,1.8-1.6,3.9-1.3,6c1,6.2-0.1,12.2-1.6,18.2
					c-1.2,4.8-3.5,5.8-9.2,4.2c-1.4-0.2-1.8-1.6-2.6-2.5s-1.6-2.7-3.5-1.8c-0.2,0.4-0.3,0.8-0.1,1.2c0.1,0.6,0.3,1.2,0.7,1.8
					c3,3.1,2.2,6.2,0,9.3c-1,1.3-2.3,2.3-3.8,3c-3.2,1.3-2.7,4.8-3.5,7.5C401.8,578,402.6,579.9,400.2,579.6z"/>
				<path class="st23" d="M238,430.5c-0.8,5.1-5.4,7.3-8.3,10.8c-3,3.6-4.5,8.4-8.7,11.1c-0.5,0.5-0.7,1.1-0.6,1.7
					c0.6,4.8-2.6,8.1-5.6,10.3c-5.4,4-5,9.2-4.6,14.5c0.4,4.7,1.1,9.4,0,14.1h-0.6c0-4.2-1-8.2-1.7-12.3c-0.9-3.6,0.3-7.4-1.6-10.8
					c-1-2.2-0.6-4.6-0.7-7c1-1.7,1.1-3.8,2.3-5.4l0,0c6.2-0.2,6.6-4.7,6.9-9.3l2.3-6.2c2.5-2,1.7-5.1,2.4-7.7l1.6-3.1
					c0.8-1.2,1.6-2.4,3.2-2.3s2.8-1,3.7-2.3l6.9-1.6C235,427.4,237.5,428.4,238,430.5z"/>
				<path class="st23" d="M260.4,399.7l3-1.6c3.3-1,6.8,0.4,10.1-0.7l6.2-1.6c5.9-0.8,11.7-1.6,17.6-2.5c1.4-0.3,2.7-0.7,4-1.2
					c-1.8,2.7-4.4,3.5-7.6,3.8c-3.6,0.4-7.8-0.7-10.6,3c-0.5,0.3-1.2,0.4-1.8,0.2c-4.6-2.4-8.1,0.4-11.1,3
					c-3.3,2.9-8.1,3.3-10.5,7.5c-0.4,0.7-1.6,0.8-2.5,0.6c-2.3-0.4-3.6,0.8-5.2,2.3c-3.1,2.7-5.7,6.2-10.1,7.3c2.5-2.4,3-6,5.3-8.5
					c1-2,1.8-4.2,3.9-5.5c0.7-1.1,1.9-1.9,3.2-2.2C256.3,402.3,259.1,402.2,260.4,399.7z"/>
				<path class="st23" d="M254.3,422c-0.5-0.9-1-1.8-1.3-2.8c-0.4-1.6-1-3.7,1-4.4c2.8-1,4.2,1.4,5.4,3.3c1.1,1.8,0.6,3.2-1.6,3.8
					C256.7,420.7,255.5,421.9,254.3,422z"/>
				<path class="st23" d="M329.9,388.1c3.7-0.4,7.2,1,10.8,1.5c-2.5,1.7-5.3,1.6-8.1,1.8C330.3,391.6,329.3,390.5,329.9,388.1z"/>
				<path class="st33" d="M394.2,426.2c1.5,0.5,2.1,1.8,2.6,3.1c0.4,1.2,1.5,2.2,0.6,3.6c-0.3,0.5-1,0.7-1.6,0.3
					c-0.1,0-0.1-0.1-0.1-0.1c-1.7-1.3-3.2-2.7-3-5C392.7,427,393,426.3,394.2,426.2z"/>
				<path class="st34" d="M254.3,422c0-0.1,0-0.2,0-0.4c0.3-1.5-1.5-4.1,1.5-4c2.4,0,2.5,2.3,2.1,4.4
					C256.7,422.9,255.5,423.9,254.3,422z"/>
				<path class="st35" d="M407.2,447.6c1.7,0.4,1.8,2,2.1,3.3c0.2,1,0,2.3-1.4,2.2c-1.6-0.2-1.7-1.7-1.8-3
					C406,449.1,405.8,448,407.2,447.6z"/>
				<path class="st21" d="M260.4,399.7c-1,3-3.4,3.7-6.2,3.8C255.8,401.4,258.4,401.1,260.4,399.7z"/>
				<path class="st21" d="M273.5,397.4c-3.3,1.7-6.7,0.7-10.1,0.7C266.7,396.8,270.1,397.6,273.5,397.4z"/>
				<path class="st21" d="M251.1,405.7c-1.3,1.8-2,4.1-3.9,5.5C247.1,408.7,248.7,406.5,251.1,405.7z"/>
				<path class="st22" d="M227.9,426.7c-0.9,3.7-4.9,2.7-6.9,4.6C221.9,427.7,225.7,428.3,227.9,426.7z"/>
				<path class="st22" d="M219.4,434.4c0.1,2.8,1.3,6-2.4,7.7C217.8,439.5,218.6,436.9,219.4,434.4z"/>
				<path class="st22" d="M206.2,469.9c2.6,3.3,1.2,7.2,1.6,10.8C207.3,477.2,206.8,473.5,206.2,469.9z"/>
				<path class="st22" d="M207.8,457.6c-0.3,2-0.6,4-2.3,5.4C205.5,460.9,206,458.9,207.8,457.6z"/>
				<path class="st19" d="M346.9,639.8h-1.5c-0.4,0.4-1,0.5-1.4,0.1c-0.1-0.1-0.1-0.1-0.2-0.2c0.1-6.4,0.1-6.1,6.3-7
					c5.4-0.8,9.8-4.3,14.6-6.6c3.8-1.9,8.2-3.2,10.8-7c0.6-0.9,1.8-0.5,2.9-0.3c1.8,0.4,3.7,0.5,6.2,0.9c-3.1-4.6-0.6-6.1,2.9-8.1
					c2.9-1.7,4.1-5.6,7.1-7.7c2.2-1.6,4.1-3.5,7-3.5c2.1,0,2.7-1.1,1.9-3.1s-0.2-3,2-4c4.5-1.9,9.2-3.7,9.9-9.9
					c0.4-3.2,3.1-5.9,3.9-9.2c0.5-1.9,1.5-4.3-2.3-2.6c-2.3,1.1-2.6-2.2-4.5-2.2c-0.9-3.7,1.5-6.8,1.5-10.4c4.8-1.3,6-0.2,5.9,5.6
					c0.2,0.2,0.7,0.1,0.7-0.1c-0.3-5.4,4.1-9.4,4.5-14.7c0.1-1.7,0.4-5.4,4.3-4.4c-0.5,6-1.7,12-3.5,17.7c-0.7,1.9-1.1,4-1,6.1
					c0.2,1.4-0.4,2.8-1.5,3.8c-3.1,2.8-3.7,6.3-2.9,10.2c0.4,1.6,0.6,3.3-1.3,3.9c-6,2-8.8,7.4-12.7,11.7
					c-3.8,4.1-6.7,9.2-12.4,11.5c-1.8,0.7-3.4,2.8-4.5,4.7c-2.5,4.5-6.7,7.3-10.3,10.7c-1.7,1.6-4.1,2-6.4,2.4
					c-3.6,0.7-5.8,2.5-6.2,6.3l0,0c-5.5,2.1-11.3,2.9-17,4C348.9,638.8,347.6,638.7,346.9,639.8z"/>
				<path class="st25" d="M429.5,545.6c-1.7,2.1-2.8,4.7-3.1,7.4c0,0.9-0.2,1.8-0.7,2.5c-2.6,2.9-2.6,6.2-2.4,9.8
					c0.1,1.3,0.5,3.7-0.8,3.7c-1.8,0-3.8-1.2-5.5-2.3c-1.4-0.9-0.8-2.3,0-3.4c2.1-2.8,0.4-3.5-2.1-3.9c-0.6-0.3-0.9-1.2-0.5-1.8
					c0.1-0.2,0.2-0.3,0.4-0.5c5.8,1,6.5,0.2,8-5.3c1.1-4.9,1.5-9.9,1.3-14.9c0-1.3-0.2-2.8,0.3-3.8c2.5-4.5,1.5-8.8,0.2-13.3
					c-0.1-0.3,0.2-0.7,0.3-1c1.9-0.1,1.1,2.7,3.5,2.5c-0.5-3.3-2.8-6.3-2-9.8c2,3.4,3.6,7,4.6,10.8c-1.4,2.1-0.3,4.8-1.5,6.9
					l-0.8,2.3c-1.4,2.5-0.1,4.7,0.8,7C429.6,541,429.6,543.3,429.5,545.6z"/>
				<path class="st19" d="M423.4,490.8c-0.4-2.8,0.9-5.8-2.2-8.2c-1.7-1.3,0.8-3.7,0.7-5.7C424.3,481.1,424.9,486.1,423.4,490.8z"/>
				<path class="st19" d="M429.6,529.4c-0.4-2.5-0.8-5,1.5-6.9C431.1,524.9,431.4,527.4,429.6,529.4z"/>
				<path class="st19" d="M429.6,538.7c-1.3-2.2-3.7-4.3-0.8-7C429,534,429.3,536.4,429.6,538.7z"/>
				<path class="st19" d="M421.9,497.7c0-1.7,0-3.4,1.5-4.6C423.4,494.8,423.4,496.5,421.9,497.7z"/>
				<path class="st36" d="M406.7,554.7l-0.1-1.5c0.6-1,1-1.4,2.3-0.6c4,2.2,7.2,7.6,4.6,13.1c-1.5,3.3-4.3,5.9-7.7,7.1
					c-0.9,3.7-1.7,7.5-2.7,11.2c-0.3,1.8-1.2,3.4-2.5,4.6c-1.3,1.1-1.8,0.5-1.8-1c1.3-4,2.9-7.9,3.3-12.2c0.3-3.5,1.9-6.4,5.7-7.5
					c0.4-0.8,1.1-1.4,1.5-2.2c2.8-4.8,2.7-5.3-1.5-9.3C407.4,556,406.6,555.6,406.7,554.7z"/>
				<path class="st37" d="M405.8,572.8c3.1-2.2,5.9-4.6,7.3-8.4c1.5-4.4-0.8-9.2-5.1-10.7c-0.5-0.2-0.9-0.3-1.4-0.4
					c0.5-2.7,2.1-2.1,3.7-1c2,1.3,3.2,3.3,4.6,5.1c0,0.8,0.1,1.5,0.1,2.3c0.8,3.7-1,6.8-2.4,10C410.9,571.8,408.4,572.4,405.8,572.8
					z"/>
				<path class="st38" d="M408.7,568c-4.9,2-5.7,6.3-6.4,10.8c-0.5,3.1-1,6.3-3.5,8.7c-0.5-2.8,1.5-5.2,1.4-8
					c0.3-0.4,0.4-0.9,0.5-1.4c0-5.9,3-9.8,7.9-12.6C409.5,566.4,409.1,567.2,408.7,568z"/>
				<path class="st39" d="M259.1,606.2c0,2-0.7,4-2.2,5.5c-0.4,0.3-0.9,0.2-1.2-0.1c0-0.1-0.1-0.1-0.1-0.2c-1-1.8-0.4-3.7,0-5.5
					c0.2-1.2,0.6-2.8,2.2-2.5C259.3,603.6,259,605.1,259.1,606.2z"/>
				<path class="st29" d="M276.6,639.8c-1.9-2.1-4.8-2.2-6.9-3.8c4.1-0.2,8,0.4,10,4.7L276.6,639.8z"/>
				<path class="st29" d="M296.7,643.7c-3.2,0-6.3,0-9.3-1.5C290.7,641.8,294.1,640.3,296.7,643.7z"/>
				<path class="st24" d="M343.8,639.8l1.6,0.1c-3.7,1.2-7.7,1.7-11.6,1.5C336.8,639,340.4,640.2,343.8,639.8z"/>
				<path class="st29" d="M311.4,643.8c-4.8,1.2-9.9,1.2-14.7,0H311.4z"/>
				<path class="st24" d="M346.9,639.8c-0.1-1.1-0.2-2.3-0.4-3.9c6,3.1,11.3-0.1,16.7-0.9c1.2-0.2,2.5-0.4,3.8-0.5
					c-1.3,1.5-3.1,1.7-4.8,2.1C357.1,637.7,352.1,639.5,346.9,639.8z"/>
				<path class="st40" d="M408.7,568l-0.1-2.5c1.8-2.9,2.2-5.7-0.8-8.1c-0.8-0.7-1.2-1.7-1.1-2.7C413.2,559.5,413.5,560.9,408.7,568
					z"/>
				<path class="st41" d="M410.1,468.7c0,1.4-0.3,2.4-1.7,2.3c-1.6-0.1-2-1.4-2-2.8c0-1.1,0.2-2.3,1.6-2.2
					C409.6,466.3,409.9,467.7,410.1,468.7z"/>
				<path class="st42" d="M233.5,433.6c-1.6,0-1.9-0.8-1.8-1.8c0.1-1.4,0.6-2.5,2.3-2.5c1.2,0,1.5,0.8,1.5,1.8
					C235.5,432.3,234.7,433.4,233.5,433.6z"/>
			</g>
			<g id="face">
				<path class="st43" d="M354.6,588.2c16.2-5.1,31.7-22.4,23-40.3c-4.9-10.1-20.6-1.5-27.3,0.9c-14.6,5.2-29,4.4-43.8,0.7
					c-8.9-2.2-18.7-2.4-23.3,7.1c-3.7,7.6-0.5,17.6,4.1,24c5.5,7.7,16.6,9.8,25.3,10.9C326.6,593.2,341.1,592.4,354.6,588.2z"/>
				<path class="st2" d="M320,554.5c-3.3-0.3-6.5-0.8-9.7-1.5c-0.4,11.7-1.6,23.4-3.6,35c4,0.9,8,1.5,12,1.8
					C320.1,578.1,320.5,566.3,320,554.5z M337,554.2c1.5,11.7,2.3,23.5,2.4,35.2c3.4-0.4,6.7-1.1,10-2c0-11.5-1.3-23.7-5-34.6
					C341.9,553.5,339.5,553.9,337,554.2L337,554.2z M365.4,546.2c3.6,8.2,6.3,16.7,8.1,25.4c2-3.3,3.2-7,3.5-10.8
					c0.3-4,0.8-11.8-3.8-13.9C370.7,545.9,368,545.6,365.4,546.2L365.4,546.2z M356.7,549.1l-0.2,0.1c4,10,6,21.7,6.7,32.4l0.2-0.1
					c3.1-1.9,5.8-4.3,8.1-7.2c0-0.1-0.1-0.2-0.1-0.3c-1.8-9.4-4.7-18.5-8.5-27.3C360.9,547.4,358.8,548.3,356.7,549.1L356.7,549.1z
					 M346.8,552.4c3.6,10.8,4.9,23.1,5,34.5c3.1-1,6.2-2.3,9.1-3.8c0-0.1,0-0.1,0-0.2c-0.6-10.8-2.6-22.7-6.6-32.7
					C351.8,550.9,349.3,551.7,346.8,552.4L346.8,552.4z M322.5,554.7c0.5,11.8,0.1,23.6-1.3,35.3c5.2,0.4,10.4,0.3,15.6-0.2
					c0-11.8-0.8-23.6-2.2-35.4C330.6,554.9,326.5,554.9,322.5,554.7L322.5,554.7z M290.5,580.2c2.3-9.8,4.3-19.7,5.9-29.5
					c-3.5-0.1-6.9,1.4-9.1,4.2c-3,3.8-3.7,9-2.7,13.6C285.4,572.8,287.5,576.8,290.5,580.2L290.5,580.2z M302.7,587.1
					c0.5,0.1,1.1,0.3,1.6,0.4c2-11.6,3.2-23.2,3.5-35l-2-0.5c-2.3-0.6-4.6-1.1-6.9-1.3c0,0.1,0,0.1,0,0.2
					c-1.8,10.5-3.8,20.9-6.3,31.2C295.6,584.5,299,586.1,302.7,587.1L302.7,587.1z M303.4,539.9c21.2-0.8,31.7-21.7,32.1-40.7
					c0.4-19.5-8.7-44.3-32-43.9c-22.5,0.4-33.5,21.5-33.9,41.7C269.9,516.3,280.4,540.7,303.4,539.9L303.4,539.9z M331.7,523.4
					c8.4,12.1,24.8,18.6,38.2,10.1c12.2-7.7,17-22.6,16.8-36.5c-0.1-13.3-4-28.7-16.7-35.6c-13.6-7.3-29.1-2.5-38,9.6
					c4.5,8.7,6.5,18.4,5.9,28.1C337.6,507.5,335.5,515.8,331.7,523.4L331.7,523.4z"/>
				<path class="st4" d="M423.8,484.2c-3.6,0.6-32.9,0.9-36.6,1c0.7,3.4,1.1,6.9,1.1,10.3c3.4,0,6.9-0.2,10.3-0.4
					c1.6-0.1,28.9,0.3,29-1.5c0.1-1.2,0-2.5-0.3-3.7C427,488.5,426.1,483.8,423.8,484.2z M203.1,498.2c0,5.4,5.3,4.4,9.7,4.5
					c4.2,0.1,8.4,0.1,12.6,0.1c10.7,0,33.3-0.4,44-1c-0.2-1.6-0.3-3.2-0.3-4.9c0-1.8,0.2-3.6,0.4-5.4c-10.5,0.4-32.8,0.1-43.3-0.3
					c-5.2-0.2-10.4-0.4-15.6-0.6C205.1,490.4,203.1,493.5,203.1,498.2z"/>
				<path class="st43" d="M294.4,515.4c-2.5-5.9-3.6-12.2-3.3-18.6c0.2-5.6,1.3-11.1,3.3-16.3c4.7-11.5,16.9-15.9,25.5-7.4
					c1.9,1.9,1.9,2.2,0.1,4.8c-3.9,5.5-8.9,12.8-13,19.2c-1.8,2.8-0.4,2.8,1.8,1.9c6.7-2.6,11.9-4.6,15.8-6.2
					c2.7-1.1,3.4-1.1,3.5,1.4c0.1,1.3,0.1,2.6,0.1,3.8c-0.1,5.6-1.1,11.2-3.1,16.5C318.3,531.2,301.2,530.6,294.4,515.4z"/>
				<path class="st43" d="M348.1,514.4c-2.3-5.5-3.4-11.5-3.1-17.5c0.2-5.2,1.2-10.4,3.1-15.3c4.4-10.9,15.9-15,24-7
					c1.8,1.8,1.8,2.1,0.1,4.5c-3.7,5.1-8.3,12-12.2,18.1c-1.7,2.6-0.4,2.6,1.7,1.8c6.3-2.5,11.2-4.4,14.9-5.8c2.5-1,3.2-1,3.3,1.3
					c0.1,1.3,0.1,2.5,0,3.6c-0.1,5.3-1,10.6-2.9,15.5C370.6,529.3,354.5,528.7,348.1,514.4z"/>
				<path class="st43" d="M375.6,455.5L375.6,455.5C375.6,455.5,375.6,455.4,375.6,455.5z"/>
				<path class="st44" d="M389.1,491.9c0.1,1.2,0.1,2.4,0.1,3.6c3.2,0,6.4-0.2,9.6-0.4c1.5-0.1,3.1,0.3,3.2-1.5c0-0.5,0-1,0-1.6
					C397.8,493.4,393.3,493.4,389.1,491.9z"/>
				<path class="st44" d="M227.4,499.5c-5.4-0.1-10.7-0.5-16-1.2c-2.8-0.3-5.6-0.9-8.2-2c-0.1,0.6-0.1,1.3-0.1,1.9
					c0,5.4,5.3,4.4,9.7,4.5c4.2,0.1,8.4,0.1,12.6,0.1c10.7,0,21.5-0.4,32.2-1c-0.1-1.1-0.2-2.3-0.2-3.4
					C247.4,499.4,237.4,499.7,227.4,499.5z"/>
				<path class="st45" d="M301.6,455.3c-21.3,1.5-31.7,22-32,41.6c0.3,19.4,10.8,43.8,33.8,43c2.7-0.1,5.4-0.6,8-1.4
					c-0.5,0-1.1,0.1-1.7,0.1c-5-0.1-9.9-1.5-14.1-4.2c-8.7-5.2-14.2-14.8-17-24.2c-3.3-11.3-2.3-23.4,2.7-34
					C285.4,467.5,292.7,459.4,301.6,455.3z"/>
				<path class="st45" d="M348.2,461.5c0.9-1.1,1.9-2.1,3-3c-7.7,1.7-14.5,6.1-19.2,12.5c4.5,8.7,6.5,18.4,5.9,28.1
					c-0.4,8.4-2.5,16.6-6.3,24.2c5.8,8.4,15.4,14.1,25.2,14c-5.2-2.9-9.5-8.1-12.1-13.3c-4.3-8.6-4.6-18.9-4.8-28.3
					c-0.3-7.8,0.6-15.7,2.7-23.2C343.8,468.5,345.7,464.8,348.2,461.5z"/>
				<path class="st45" d="M303.9,566.3c1,0.3,2,0.5,3,0.8c0.5-4.9,0.8-9.8,0.9-14.7l-2-0.5c-2.3-0.6-4.6-1.1-6.9-1.3
					c0,0.1,0,0.1,0,0.2c-0.7,4.4-1.6,8.9-2.4,13.3C299,564.8,301.5,565.6,303.9,566.3z"/>
				<path class="st45" d="M320,554.5c-3.3-0.3-6.5-0.8-9.7-1.5c-0.1,4.9-0.5,9.8-0.9,14.7c3.6,0.8,7.2,1.3,10.8,1.7
					C320.3,564.4,320.3,559.4,320,554.5z"/>
				<path class="st45" d="M332.2,569.5c1.3-0.1,2.5-0.3,3.8-0.5c-0.3-4.8-0.8-9.6-1.5-14.5c-4,0.4-8,0.4-12.1,0.2
					c0.3,4.9,0.3,9.9,0.2,14.9C325.9,569.8,329,569.7,332.2,569.5z"/>
				<path class="st45" d="M294.1,563.5c0.8-4.3,1.6-8.6,2.4-13c-3.5-0.1-6.9,1.4-9.1,4.2c-1.8,2.3-2.8,5.1-3,8.1
					C287.6,562.4,290.9,562.7,294.1,563.5z"/>
				<path class="st45" d="M373.1,546.9c-2.4-1-5.2-1.3-7.8-0.7c1.4,3.2,2.7,6.4,3.8,9.7c2.5-1,5.1-1.8,7.8-2.2
					C376.6,550.7,375.6,548,373.1,546.9z"/>
				<path class="st45" d="M344.4,552.9c-2.5,0.6-4.9,1-7.4,1.3c0.6,4.8,1.1,9.5,1.5,14.3c3.1-0.7,6.1-1.6,9.1-2.8
					C346.9,561.4,345.8,557.1,344.4,552.9z"/>
				<path class="st45" d="M363,546.8c-2.1,0.6-4.2,1.5-6.2,2.3l-0.2,0.1c1.4,3.6,2.6,7.3,3.5,11c2.3-1.1,4.5-2.3,6.8-3.3
					C365.7,553.4,364.4,550,363,546.8z"/>
				<path class="st45" d="M357.8,561.2c-0.9-3.8-2.1-7.6-3.5-11.2c-2.5,0.9-5,1.7-7.4,2.3c1.3,4.1,2.4,8.3,3.1,12.5
					c2.1-0.9,4.2-1.8,6.2-2.8C356.7,561.8,357.3,561.5,357.8,561.2z"/>
				<path class="st2" d="M341.6,427.9c-5.8-3.9-12-5.1-18.8-5.9c-7.1-0.8-16.3-1.2-22.7,2.5c-0.7,0.4-0.6,1.6,0.2,1.7
					c5.8,0.9,12-0.1,18,0.1c7.5,0.3,15,2.2,22.4,3.8c0.7,0.1,1.3-0.3,1.4-0.9C342.3,428.7,342,428.1,341.6,427.9z"/>
				<path class="st2" d="M348.9,429.9c-0.8-0.5-1.7-0.7-2.6-0.6c-1.1,0.1-2.2,1.4-1.4,2.5c0.5,0.7,1.2,1.3,2,1.6
					c0.6,0.4,1.2,0.5,1.9,0.4c0.3-0.1,0.7-0.3,0.9-0.5c-0.3,0.4,0.3-0.3,0.3-0.4c0.1-0.2,0.2-0.4,0.2-0.6c0,0.5,0.1-0.2,0-0.4
					C350.1,431,349.6,430.2,348.9,429.9z"/>
				<path class="st2" d="M276.4,620c-4-2.8-7.6-6.1-10.9-9.7c-0.4-0.3-0.9-0.3-1.3,0c-0.2,0.2-0.3,0.5-0.2,0.8
					c1.5,4.4,4.5,7.4,8.1,10.4c3.8,3.1,8,6.5,12.9,7.5c0.6,0.1,1.2-0.2,1.3-0.8c0.1-0.4,0-0.7-0.3-1
					C283.3,624.2,279.7,622.3,276.4,620z"/>
				<path class="st2" d="M291.5,629.6h-0.2h-0.1c-0.3-0.1-0.5-0.2-0.8-0.3c-0.4-0.1-0.8-0.2-1.2-0.2c-0.8,0-1.5,0.7-1.5,1.5
					c0,0.3,0.1,0.5,0.2,0.7c0.6,1,1.5,1.7,2.5,2c0.8,0.2,1.7-0.2,2.2-0.9c0.2-0.3,0.3-0.6,0.3-1
					C292.9,630.6,292.3,629.9,291.5,629.6z"/>
			</g>
		</g>
	</g>
</g>
</svg>
