<svg xmlns="http://www.w3.org/2000/svg" viewBox="0 0 194 195"><defs><style>.cls-1{fill:#f2d040;}.cls-2{fill:#90706b;}.cls-3{fill:#8587ba;}.cls-4{fill:#0a0c1d;}.cls-5{fill:#8e716d;}.cls-6{fill:#9c7c70;}.cls-7{fill:#9e796b;}.cls-8{fill:#1d2132;}.cls-9{fill:#0c0e1b;}.cls-10{fill:#585871;}.cls-11{fill:#7b7eab;}.cls-12{fill:#d2750e;}.cls-13{fill:#c27833;}.cls-14{fill:#c3771a;}.cls-15{fill:#c87417;}.cls-16{fill:#cb750f;}.cls-17{fill:#c57517;}.cls-18{fill:#d3760b;}.cls-19{fill:#7a7faa;}.cls-20{fill:#b47838;}.cls-21{fill:#161729;}.cls-22{fill:#c7761a;}.cls-23{fill:#c6761c;}.cls-24{fill:#151729;}.cls-25{fill:#dd7904;}.cls-26{fill:#472504;}.cls-27{fill:#4f1f05;}.cls-28{fill:#300601;}.cls-29{fill:#5e2004;}.cls-30{fill:#c7762a;}.cls-31{fill:#cd7b2c;}.cls-32{fill:#3a1801;}.cls-33{fill:#c17a34;}.cls-34{fill:#673007;}.cls-35{fill:#2e0d01;}.cls-36{fill:#2c314c;}.cls-37{fill:#fff;}.cls-38{fill:#e5bb07;}.cls-39{fill:#ddd;}.cls-40{fill:#f47aa6;}</style></defs><title>croqueta-purpurina</title><g id="quiz"><path class="cls-1" d="M79.19,47.51c-8-1.2-16-2.68-24-4,4.72-6.59,9.32-13.27,14.14-19.79.66-.89.55-1-.34-.37-6.53,4.82-13.22,9.42-19.8,14.15-1.32-8-2.8-16-4-24-.16-1.09-.34-1.08-.5,0-1.2,8-2.68,16-4,24-6.59-4.73-13.28-9.33-19.8-14.15-.89-.66-1-.52-.34.38C25.37,30.25,30,36.93,34.69,43.52c-8,1.31-16,2.79-24,4-1.1.16-1.08.34,0,.5,8,1.2,16,2.68,24,4C30,58.59,25.36,65.28,20.53,71.8c-.66.89-.52,1,.38.34,6.51-4.82,13.2-9.41,19.78-14.14,1.31,8,2.79,16,4,24,.16,1.11.34,1.12.5,0,1.2-8,2.68-16,4-24C55.76,62.73,62.44,67.32,69,72.14c.9.67,1,.55.37-.34C64.51,65.28,59.91,58.59,55.18,52c8-1.31,16-2.79,24-4C80.27,47.85,80.28,47.67,79.19,47.51Z"/><path class="cls-1" d="M184.55,138.12c-4.48-.67-8.93-1.49-13.4-2.23,2.64-3.67,5.2-7.4,7.89-11,.37-.5.31-.57-.19-.2-3.64,2.69-7.37,5.25-11,7.89-.73-4.46-1.56-8.92-2.23-13.39-.09-.62-.19-.61-.28,0-.67,4.47-1.49,8.92-2.23,13.38-3.67-2.64-7.41-5.2-11-7.89-.5-.37-.57-.3-.19.2,2.68,3.64,5.25,7.37,7.89,11-4.47.74-8.93,1.56-13.4,2.23-.61.09-.61.19,0,.28,4.47.67,8.92,1.49,13.39,2.23-2.64,3.67-5.21,7.41-7.9,11.05-.37.49-.3.56.21.19,3.63-2.69,7.36-5.26,11-7.89.74,4.46,1.56,8.91,2.23,13.38.09.62.19.62.28,0,.67-4.47,1.5-8.93,2.23-13.39,3.67,2.63,7.4,5.2,11,7.89.5.37.57.3.21-.19-2.69-3.64-5.26-7.38-7.9-11.05,4.46-.74,8.91-1.56,13.38-2.23C185.15,138.31,185.16,138.21,184.55,138.12Z"/></g><g id="Layer_2" data-name="Layer 2"><g id="croq"><g id="croquet"><path class="cls-2" d="M53.25,103.37c0-4.87-.22-9.75,0-14.61.23-5.55-1.13-10.83-2.08-16.2a29.9,29.9,0,0,1-.28-6,2,2,0,0,1,.6-1.48c2.82-2.64,3.81-6.22,4.94-9.7A5.78,5.78,0,0,1,61.23,51a8.44,8.44,0,0,0,6.55-4.94,11.33,11.33,0,0,1,11.09-7,4.94,4.94,0,0,0,1.75-.24,37.78,37.78,0,0,1,13.87-2.08c2.11.09,4.21.05,6.06-1.32a4.11,4.11,0,0,1,2.51-.51A54.47,54.47,0,0,1,116.64,37c4.29,1.21,7.6,3.73,10.8,6.59a47.13,47.13,0,0,0,7,4.92c.78.39,2,.25,2,1.64-.73,1-1.54.28-2.12-.07a59.78,59.78,0,0,1-8.74-5.9,25.67,25.67,0,0,0-6.92-4.75,10.26,10.26,0,0,0-2.63-.81c-1.34.21-1.93-1.25-3.2-1.35a61.33,61.33,0,0,1-6.58-.66c-2.6-.5-4.67.52-7,1a29.52,29.52,0,0,1-7.53.55,17.5,17.5,0,0,0-7.94,1.11,22,22,0,0,1-6.15,1.09c-2.1.05-3.62,1.45-5.33,2.6a11.56,11.56,0,0,0-3.87,5C67.9,49,66.8,49.74,66.16,50.8a1.47,1.47,0,0,1-.69.24c-1.78.46-3.47,1.18-5.24,1.68a4.15,4.15,0,0,0-2.46,2.86A57.83,57.83,0,0,1,55,63c-.15.59-.64,1-.92,1.49-1.65,1.36-2.08,2.81-1.86,5.17.39,4.1,1.4,8.08,1.78,12.17,0,.2,0,.39,0,.59.15,3.7.19,7.43.14,11.11,0,3.33.25,6.64.17,10C53.94,103.8,53.57,103.83,53.25,103.37Z"/><path class="cls-3" d="M48.07,72.58h1.72v.34"/><path class="cls-4" d="M53.25,103.37l.76-.18c.75,0,.93.4.85,1s-.61.55-1,.53c-3.74,1-7.37,1.13-10.78-1.11a13.12,13.12,0,0,1-2.35-2q-3.13-3.3-6.54-6.31A21.52,21.52,0,0,0,28,91.54c-.5-.2-1.54-.33-1.17-1.19s1,0,1.53.09c.3,0,.56.35,1,.07-.12-.69-.73-1.1-1.08-1.66-.23-.36-.63-.75-.17-1.14s.75.13,1,.43c.71.79,1.1,1.87,2.2,2.45.51-.7.33-1.55.55-2.29.1-.33.24-.66.63-.61s.43.43.43.76a1.74,1.74,0,0,1-.08.64c-.87,2.42.11,4,2.11,5.39,2.87,2,5,5,7.65,7.23C45.78,104.41,49.39,104.79,53.25,103.37Z"/><path class="cls-5" d="M136.1,50.2c-.17-.93-1-1.25-1.63-1.69,1.49-.09,2.32,1,3.26,1.86,2.57,2.43,4.4,5.16,3.93,9-.38,3,.75,6,.75,9,0,1.41,1.14,2.53,1.66,3.83,1.37,3.36,1,6.8.52,10.22a3.85,3.85,0,0,0,.56,3.24,11.2,11.2,0,0,1,2.71,9.94,6.48,6.48,0,0,0,0,1.46.84.84,0,0,1-1,.28c-1-1-.34-2.13-.27-3.15a9.47,9.47,0,0,0-2.14-7.27,5.17,5.17,0,0,1-1.16-5,13.15,13.15,0,0,0-1.41-11.06,4.27,4.27,0,0,1-.35-1.08,8.34,8.34,0,0,1-.67-4.26c.2-1.56-.68-2.9-.73-4.41,0-1.13-.25-2.25-.28-3.39a7.64,7.64,0,0,0-2.26-4.88C136.91,52.08,135.73,51.54,136.1,50.2Z"/><path class="cls-6" d="M53.81,104.76l.55-.3c1.29.61,1.58,1.54,1.47,3-.16,2.14.59,4.25.64,6.41,0,.68.19,1.39.15,2.08-.13,2.2.83,4.17,1.26,6.25.28,1.34,1.44,2.09,2.2,3.11.11.23.23.47.35.7s.09.65.21,1c1.35,1.72,2.49,3.64,4.22,5,.51.41.87.94,1.35,1.35A38.79,38.79,0,0,0,77.44,140a13.6,13.6,0,0,0,3.75,1.68c1.48.76,3.2.74,4.69,1.46.44.22.88.38,1,.93a1,1,0,0,1-.43,1.21c-1,.11-1.73-1-2.75-.38-2.05-.93-4.22-1.51-6.32-2.31a5.68,5.68,0,0,1-1.44-.66c-1.28-.55-2.44-1.34-3.76-1.81a14.45,14.45,0,0,1-1.33-1.38l0-.23c-2.14-1.65-4.35-3.2-6.39-5-4.3-3.74-6.94-8.6-8.91-13.87A52.69,52.69,0,0,0,53.81,104.76Z"/><path class="cls-7" d="M144.89,118.73a10.38,10.38,0,0,1-3.77,4.52,16.82,16.82,0,0,0-4,4.25,3.84,3.84,0,0,1-1.53,1.41c-3.66,1.64-5.85,4.63-7.66,8a3.27,3.27,0,0,1-3.66,2.93.76.76,0,0,1-.29-.41c0-.94,1-1.2,1.41-1.83,1-1.5,2.5-2.69,3.3-4.38a13.47,13.47,0,0,1,5.12-4.79c2-1,3-3,4.35-4.6a12.22,12.22,0,0,1,3.49-2.92,2.81,2.81,0,0,0,1.44-2c.56-2.74,1.54-5.37,2-8.15.57-3.27.51-6.61,1.15-9.87a7.34,7.34,0,0,1,.79-2.89c.76-.11,1.06.27,1,1-.85,2.74-.95,5.61-1.34,8.43A74.28,74.28,0,0,1,144.89,118.73Z"/><path class="cls-8" d="M148.16,99l-.88-.6c-.84-.35-1.13-.81-.28-1.48l.86.1c2.26,1.84,4.81,1.58,7.36.93,4.63-1.18,7-4.6,8.48-8.81.38-1.06.68-2.16,1-3.24.38-.42-.06-1.06.39-1.46.41-.22.8-.65,1.31-.16-.92,3.6-1.8,7.24-4.12,10.26-3.31,4.35-7.74,5.75-13,4.67Z"/><path class="cls-9" d="M166.41,84.3c-.47.12-.38.86-.95.84-.05,0-.09-.38-.13-.58-.29-1.88.1-3.8-.31-5.67a.66.66,0,0,1,.3-.81.72.72,0,0,1,1.08.33c.75,1.29.63-.14.92-.29,1-.59,1.15-.15,1,.76a16.17,16.17,0,0,0-.77,3.23c.7.2,1.09-.28,1.58-.44.32-.11.69-.16.85.2s-.14.58-.44.74Z"/><path class="cls-10" d="M167.32,78.12a3.21,3.21,0,0,1-.66,1.89c-.83-.34-.12-1.82-1-1.6s-.26,1.39-.34,2.13c-.14,1.33.25,2.68,0,4-.21.45-.41.9-.62,1.36A27.79,27.79,0,0,0,164.9,79c-.11-1.07.47-1.38,1.39-1A1,1,0,0,0,167.32,78.12Z"/><path class="cls-11" d="M124.48,139.62c1.52-.44,2.31-1.83,3.5-2.69a24.73,24.73,0,0,0,5.15.6,1.26,1.26,0,0,1,.63.11c3.67,1.64,7.46,3,10.85,5.24,1.38.9,1.65,4.82.54,6.29A14.42,14.42,0,0,1,137.8,154c-8.22,2.8-16.71,4.13-25.32,5.15-7.25.87-14.48.28-21.71.58-1.33.05-2.54-.51-3.83-.65a131,131,0,0,1-16.3-2.45,30,30,0,0,1-10-4.11c-2-1.36-3.36-3.19-2.82-5.74.44-2.11,2.17-3.2,3.92-4.24,2.85-1.7,6.07-2.52,9-3.95h0a4,4,0,0,0,1.67.95l3.84,1.7c.6,1.36.42,2-.72,1.91-1.52-.14-2,.85-2.51,1.8a2.62,2.62,0,0,1-3,1.54,33.47,33.47,0,0,0-8.71.42c-1.38.19-1.74,1-1,2.17a7.92,7.92,0,0,0,2.63,2.83,2.54,2.54,0,0,0,3.35-.08c1.87-1.37,4.14-.73,6.28-.51,0,0,.12,0,.13.09,1.08,2.68,3.55,1.53,5.44,2a1,1,0,0,1,.4.18A5.75,5.75,0,0,0,81,154c.79.2,1.69.28,2.19.95,1,1.32,2,.52,2.79,0a3.56,3.56,0,0,0,1.28-1.17,8.83,8.83,0,0,0-.33-2.16c-.55-2.06-.07-4.09.29-6.09.17-1,.85-1.09,1.52-.26a5.21,5.21,0,0,1,1.48,2.81c.06,1.19.75,1.49,1.65,1.74,1.43,1.62.94,4.43-1.09,6.08.84-.39,1.33.14,1.83.61a3.26,3.26,0,0,0,2,1,67.33,67.33,0,0,0,13.24,0,1.82,1.82,0,0,0,1.79-1.92c0-.86,0-1.73.08-2.59a2,2,0,0,1,2-1.94c3.89-.31,3.89-.34,4.6-4.13a.85.85,0,0,1,.22-.42c.33-.32.86-.49.8-1.09.06.5-.32.71-.65,1-1.67.73-3.47.46-5.2.63a1.19,1.19,0,0,1-1-.66c-.93-1-2-.77-3.19-.53-1.68.57-3.3,1.43-5.17,1.25a1.48,1.48,0,0,1-1.44-1.26c-.2-.77.4-1,1-1.33s.85-1,1.59-.9h4.16a11.55,11.55,0,0,0,5.06-.67,8.6,8.6,0,0,1,3.94-.65c1.76,0,3.23-1.09,5-1.27,1-.1,1.7-.12,2.2.82a1.19,1.19,0,0,1,0,.79s0,.12,0,.15c-1.39,1.25-1.39,1.25,0,2.34.15,1.13-.08,2.31.39,3.41.25,2.06,2.25,2.21,3.53,3.09a.9.9,0,0,0,1.31-1.11c-.58-.66-1.15,0-1.68.07-1.62.35-2.17.17-2.86-1.37-1.1-2.48-.6-5.07-.43-7.64C123.66,140.8,123.49,140,124.48,139.62Z"/><path class="cls-12" d="M136.1,50.2c2.59,2.28,4.57,4.71,4.71,8.56.13,3.61.12,7.32,1.18,10.88.25.48.07,1,.19,1.52-.86.94-1.22.12-1.51-.49a8.57,8.57,0,0,1-.84-3.61c0-1.9-.22-2-2-1.65a2.25,2.25,0,0,1-2.53-1.34,4.46,4.46,0,0,1,.54-4.4c.85-.79.8-1.2-.2-1.79s-1.69-1.22-3-.69c-.88.38-2.77-1.18-3.11-2.39a8.8,8.8,0,0,1-.4-2.4c0-2.26-.63-3.17-2.86-3.55-1.47-.25-2.52-.67-3-2.26a2.56,2.56,0,0,0-2.17-1.75,6.82,6.82,0,0,1-3.78-1.72,3.2,3.2,0,0,0-2-.62c-2.06-.3-4.21,0-6.13-1.21-.86-.55-2-.24-3-.28a117,117,0,0,0-12,.21,2.6,2.6,0,0,0-1.11.19c-2.7,1.36-5.78,1.3-8.53,2.18-3.6,1.15-7.4,2.66-8.63,7a3,3,0,0,1-3.91,1.74,1.14,1.14,0,0,0-1.66.37c-.23.31-.46.61-.7.9-1.59,2-2.35,2.07-4.48.66a2.18,2.18,0,0,0-1-1.15c-.64-.29-.63-.78-.48-1.34a1.29,1.29,0,0,1,.44-.62c1-.32,2.33-.1,2.49-1.66a1,1,0,0,1,.36-.33c1.74-.6,2.37-2.4,3.72-3.43.33-.26.52-.77,1-.86,3-.59,5.22-2.71,7.86-4,1.42-.7,3-.55,4.25-1A11,11,0,0,1,88.51,39c1.65.11,2.61-1.13,4-1.36,1.39,0,2.78,0,4.17,0a7.67,7.67,0,0,0,4.29-1,4.85,4.85,0,0,1,3.06-.73c1.52,1.63,3.32,1,5.09.64,2.55.1,5,1,7.49,1.28a20.56,20.56,0,0,1,7.7,4.26A67.91,67.91,0,0,0,136.1,50.2Z"/><path class="cls-13" d="M59.42,126.17a15.46,15.46,0,0,1-3.28-8.77,59.49,59.49,0,0,0-1.78-12.94,1.32,1.32,0,0,0-.35-1.27c-.89-4.77-.37-9.59-.44-14.38,0-2.27,0-4.54,0-6.81,1-.18,1.5.33,1.68,1.24a11.36,11.36,0,0,1,.11,1.93c0,2.64-.21,5.28-.34,7.92a37.47,37.47,0,0,0,.69,9.82,86.79,86.79,0,0,1,2.09,13.44c-.79,1.88-.12,3.54.8,5.17a19.52,19.52,0,0,1,1.31,3.13C60.09,125.27,60.1,125.82,59.42,126.17Z"/><path class="cls-14" d="M104.24,36.2a4.87,4.87,0,0,0-3.11.69c-1.91,1.23-4.07.89-6.16.93l-2.77,0c-1.58,1.54-3.77.89-5.62,1.52-.84.29-1.88-.15-2.7.57-.23.19-.62,0-.84-.31-.23-.46.1-.67.4-.88,3.68-1.39,7.54-1.22,11.36-1.29,2.24,0,4.41-.13,6.42-1.32a4.68,4.68,0,0,1,3-.55c4.17.53,8.41.71,12.41,2.19-2.68.29-5.17-1-7.82-.95C107.23,37,105.64,37.28,104.24,36.2Z"/><path class="cls-13" d="M83.44,38.76l-.33.66c-.62.91-1.74.66-2.55,1.13-1.17.53-2.47.41-3.68.72A2.69,2.69,0,0,0,75.5,42c-.83.5-2,.26-2.6,1.34a3.47,3.47,0,0,0-1.36,1.07,4,4,0,0,0-1.32,1.87c-1.14,1-1.52,2.6-3,3.21l0,.29c-.42.28-.59,1.1-1.36.62,2.55-3.74,4.28-8.21,9-10a5,5,0,0,1,1.83-.53A22.42,22.42,0,0,0,83.44,38.76Z"/><path class="cls-13" d="M64.58,51.45l-.32.31c-.53.89-1.53,1.12-2.34,1.61a3.38,3.38,0,0,0-2.6,1.45,3.51,3.51,0,0,0-.69,1.36,14.89,14.89,0,0,0-1,3.06,10.31,10.31,0,0,0-1.19,2.87c-.46.85-1,1.44-2,.67,1.18-2.55,2-5.24,2.94-7.88A4.43,4.43,0,0,1,60.64,52c1.55-.43,3.07-1,4.61-1.46C65.54,51.21,64.83,51.17,64.58,51.45Z"/><path class="cls-13" d="M53.49,81.75c-.7-4.26-1.37-8.53-2.12-12.79-.39-2.22.83-3.69,2.14-5.17,1,.48.22,1.19.26,1.79a.93.93,0,0,1-.1.47,6,6,0,0,0-.75,2,4.77,4.77,0,0,0,.28,2.69c.39,1.51-.06,3.06.19,4.57A16.25,16.25,0,0,1,54,80.47C54,81,54.1,81.5,53.49,81.75Z"/><path class="cls-15" d="M52.91,65.43a2.86,2.86,0,0,0,.6-1.64c.09-.55.59-.72,1-1,.67-.18.82-.92,1.34-1.27a2.55,2.55,0,0,1,.09,3.39C54.91,66,53.86,66.14,52.91,65.43Z"/><path class="cls-16" d="M64.58,51.45l.67-.92.57-.11,1.36-.62A2.05,2.05,0,0,1,64.58,51.45Z"/><path class="cls-15" d="M53.49,81.75l.11-1.38a.59.59,0,0,1,.59,0A4.37,4.37,0,0,1,55.27,84c-.05.53-.11,1.08-.78,1.23-.57-1,.08-2.38-1-3.25A1,1,0,0,1,53.49,81.75Z"/><path class="cls-17" d="M141.94,71.28c0-.55,0-1.1.05-1.64.38.77.75,1.55,1.14,2.32a13.06,13.06,0,0,1,.8,9.64,5.44,5.44,0,0,0,1.12,5.31,9.08,9.08,0,0,1,2.14,6.79c-.08,1.07-.13,2.16-.19,3.24a1.25,1.25,0,0,0,.28,1.48c-.36,2.62-.78,5.24-1.08,7.87-.47,4.23-.82,8.47-2.33,12.53a6.31,6.31,0,0,1-2.18,2.91c-1.87,1.45-3.81,2.82-4.94,5-.79,1.54-2.48,2-3.82,2.91a9.48,9.48,0,0,0-3.66,4,19.78,19.78,0,0,1-5.06,5.37,5.21,5.21,0,0,1-4.55,1.06c-.68-1.54-.11-3.14,1.7-3.38,2.26-.31,3.47-2.27,5.48-2.84.28-.08.47-.44.64-.71a12.82,12.82,0,0,1,4.73-4.91,3.17,3.17,0,0,0,1.12-1.15c.16-.26.23-.63.55-.72,2.08-.66,2.71-2.65,3.85-4.17a3.82,3.82,0,0,1,1.43-1.28,4,4,0,0,0,2.45-3.5,6,6,0,0,1,1.8-4c.8-.71.34-2,.6-3a33.06,33.06,0,0,1,.82-3.26,4.35,4.35,0,0,0,.24-3.53c-.21-.43,0-.85.09-1.27a5.63,5.63,0,0,0,0-2.55c-.59-1.08.58-2.13.05-3.2a1.42,1.42,0,0,1,.32-1.14,2.61,2.61,0,0,0,.58-2.53A9.31,9.31,0,0,0,144,88.47a8.24,8.24,0,0,1-1.79-6.12,7.3,7.3,0,0,1,.35-2.12,4,4,0,0,0,.23-1c.09-.79.11-1.6.21-2.39a3.18,3.18,0,0,0-.74-3C142.22,73,140.82,72.26,141.94,71.28Z"/><path class="cls-18" d="M59.42,126.17A12.06,12.06,0,0,0,58,122.38a10.63,10.63,0,0,1-1.23-5.92c.69-.47,1.07-.12,1.39.51,1.32,2.54,3.43,4.39,5.52,6.25A3.09,3.09,0,0,1,65,125.55c0,1.09.46,1.62,1.64,1.3a1.76,1.76,0,0,1,2.11.8,6.09,6.09,0,0,0,.87,1c1,1,1.33.89,1.75-.39.76-2.36,1.45-3,2.93-2.74,1.29.23,1.63,1.1,1.53,3.61A4.67,4.67,0,0,1,74.43,132c-.7.82-.56,1.39.52,1.58,1.48.26,2.81.61,3.54,2.17.34.74,1.27.73,2,.74a9.28,9.28,0,0,1,4.94,1.27,8.93,8.93,0,0,0,4.2,1.06,91.94,91.94,0,0,0,12,.29,5.75,5.75,0,0,0,3.9-1.29,2.39,2.39,0,0,1,1.8-.65,6.92,6.92,0,0,0,4.29-1.26c2.87-1.94,6.38-2.34,9.38-4,.37-.2.88-.24,1.12-.61,1.63-2.57,4.4-3.68,6.76-5.31.27-.19.66-.33.72-.62.4-1.7,1.82-3,1.53-5a3.22,3.22,0,0,1,2.79-3.91c.76.53.11,1.4.5,2,.81-1.58.61-3.44,1.49-5a29.17,29.17,0,0,0,3-1.39,7.66,7.66,0,0,1,2.86.36,1.16,1.16,0,0,1,.87,1.81,38.78,38.78,0,0,0-1.79,5c-.24.64-.47,1.33-1.07,1.58a5.55,5.55,0,0,0-3,2.82c-.74,1.89-2.33,2.3-3.72,3.24a7.65,7.65,0,0,0-3.29,3.48,1.47,1.47,0,0,1-.84.74,2,2,0,0,0-1.21,1.84c0,.86-.12,1.38-1.39,1.26a5.4,5.4,0,0,0-3.59,1c-2.71,1.88-5.87,3-8.72,4.6a2.59,2.59,0,0,1-2,.08c-1.06-.3-1.46,0-1.42,1.06,0,.58.14,1.19-.49,1.57a15.7,15.7,0,0,0-4.3.74c-3.14.38-6.24,1.11-9.43,1-1.89,0-3.77,0-5.65,0l-.52,0c-1.13-1.3-2.69-.45-4-.78a8.21,8.21,0,0,1-3-.69c-1.11-1.49-2.87-1.39-4.42-1.81a5.11,5.11,0,0,1-.66-.22c-2.35-.64-4.27-2.18-6.36-3.3a23.12,23.12,0,0,1-6.08-4.5,8,8,0,0,0-1.88-1.44c-.84-.79-1.59-1.66-2.37-2.5a4.47,4.47,0,0,0-1.7-2.45Z"/><path class="cls-19" d="M78.25,154.16a29.78,29.78,0,0,0-4.53,0c-.77.12-1.4-.16-1.39-1.13a1,1,0,0,0-.39-.85c-.94-.72-4.76-.21-5.35.81a1.37,1.37,0,0,1-1.76.69A8.54,8.54,0,0,1,59,148.5c-.65-1.41.1-2.35,1.71-2.46,3.32-.25,6.62-.89,10-.43,1.27.17,2.43-1.88,1.79-3-.21-.38-.32-.69,0-1a.81.81,0,0,1,1-.16,8.89,8.89,0,0,1,1,.57c1,.59,1.63.38,1.86-.8l7.47,2.85c1.9,1.09,2.08.54,1.42,3.19a5.15,5.15,0,0,0,.24,3.64c.34.7.34,1.59-.49,1.93-1.32.55-2.48,1.65-4.1,1.35A11.13,11.13,0,0,0,78.25,154.16Z"/><path class="cls-20" d="M83.12,142.46c1.1.17,2.09.84,3.25.65,1.29.3,2.69-.08,3.9.65h0a24.66,24.66,0,0,0,6.19,0,80.63,80.63,0,0,0,9.42-1c1.14-.55,2.39-.23,3.58-.47.43-.08.84-.08,1.09-.5a1,1,0,0,1,.74-.21,10.2,10.2,0,0,0,5.2-1.49c1.05-.63,2.09-.07,3.11-.27l.26,0c3.6-.3,6.15-2.36,8.3-5,.34-.42.57-.92,1.11-1.15-1.05,2.39-3,4-4.92,5.62-.58.33-.51,1.3-1.35,1.38-3.88,1.1-7.85,1.86-11.77,2.81-2,.51-4.19.18-6.28.44-.47.05-1-.11-1.42.14l-.12,0-.12,0c-4.17,1.78-8.57,1.53-13,1.47a3.15,3.15,0,0,1-2.11-.66,4,4,0,0,1-1.87-.83c-1.8-.76-3.82-.87-5.52-1.91.17-.41.54-.45.91-.47C82.38,141.63,82.73,142.08,83.12,142.46Z"/><path class="cls-19" d="M78.25,154.16a1.23,1.23,0,0,1,1.62-.64,3.35,3.35,0,0,0,2.65-.22c2.29-.9,2.29-.9,1.71-3.33a3.41,3.41,0,0,1,.19-2.36,2.54,2.54,0,0,0-.66-3.54,2.69,2.69,0,0,1,2.39.94,1,1,0,0,1,.33,1.09c-.64,2.19.11,4.22.6,6.3.41,1.73.2,1.95-1.57,2a1.79,1.79,0,0,0,1.15-.1c.42-.15.76-.61,1.28-.27a3.42,3.42,0,0,1-4.82,1.61c-.72-.46-1.51-.79-2.27-1.18S79,154.89,78.25,154.16Z"/><path class="cls-21" d="M87.94,154.05c-1.09,1.37-2.63.95-4,1a.48.48,0,0,1-.54-.48c0-.42.29-.52.63-.6.88-.22,2.15.46,2.57-.73.31-.89-.25-1.91-.57-2.81-.65-1.85-.17-3.61.17-5.41l.21-1a.83.83,0,0,1,1.27.55,12.05,12.05,0,0,0,0,7.11A6.7,6.7,0,0,0,87.94,154.05Z"/><path class="cls-22" d="M63.92,131.1c1.51.24,2.26,1.61,3.34,2.43s2.39,1.89,3.7,2.71c.59.36,1,.89,1.82.85a.94.94,0,0,1,.73.26c1.23,1.59,3,2.34,4.76,3.14-.35.32-.71.19-1.08,0-4.3-1.38-7.89-3.94-11.31-6.8A19.59,19.59,0,0,1,64.07,132C63.83,131.75,63.5,131.48,63.92,131.1Z"/><path class="cls-13" d="M63.92,131.1c.35,1.1,1.46,1.64,2,2.63A22.25,22.25,0,0,1,60,127.21c1.37-.32,1.24,1,1.71,1.61Z"/><path class="cls-23" d="M77.19,140.53l1.08,0h.62c1,0,1.76.64,2.69.84a.48.48,0,0,1,.24.77l-1,0A11.23,11.23,0,0,1,77.19,140.53Z"/><path class="cls-22" d="M61.66,128.82A5,5,0,0,0,60,127.21c-.07-.23-.14-.46-.2-.68C61.09,126.7,61.53,127.63,61.66,128.82Z"/><path class="cls-19" d="M72.45,139.51c-.88.26-1.37-.19-1.67-.95A2.81,2.81,0,0,1,72.45,139.51Z"/><path class="cls-24" d="M123.05,140.22a1.18,1.18,0,0,1,1.3-.93l.13.33a22.5,22.5,0,0,0-.16,8.34c.41,2.12,1,2.4,3,1.87a10,10,0,0,1,2.2-.44c.92,0,1,.48.39,1.11-1.48,1.62-3.35,1.17-5.08.78a2.42,2.42,0,0,1-1.73-2.3c-.56-1.27,0-2.63-.34-3.92-1-.76-.72-1.52,0-2.28l.07-.55C123.21,141.6,122.23,140.81,123.05,140.22Z"/><path class="cls-19" d="M110.43,145.71c.85.71,1.81.45,2.78.38,1.23-.09,2.48-.05,3.72-.06.11.07.14.15.11.22s-.07.11-.11.11c0,1.24-.09,2.48-.08,3.73s-.66,1.66-1.7,1.73a18.78,18.78,0,0,1-2.6.05c-1.55-.07-2.08.69-2.13,2.16-.14,4.2-.19,4-4.39,4.42s-8.1,0-12.14-.07a1.75,1.75,0,0,1-1.75-.9c-.62-1.15-1.22-.8-1.75.11-.26.46-.46,1.16-1.15.83s-.25-.94-.06-1.41a7.48,7.48,0,0,1,1.68-2.52c1.14-1.15,1.11-2.71.71-4.23a9.29,9.29,0,0,0-.93-2.73c-.62-1.12-.09-1.93,1.21-1.8a22.82,22.82,0,0,0,5.78-.17c1.65-.26,3.12.47,4.67.8a25.84,25.84,0,0,0,4.88-1.3C108.11,146,109.32,145.59,110.43,145.71Z"/><path class="cls-19" d="M102.3,146.36c-3.64-.28-7.24.69-11.11.13.79,1.34,1.64,2.51.38,3.77a1.9,1.9,0,0,0-1.45.9c-.25.36-.59.72-1.07.41a.72.72,0,0,1-.15-1c1.21-1.91.12-3.37-.94-5.06-1.18,2.14-.25,4.21-.32,6.21a8,8,0,0,1,0-7.12c5.24.54,10.45,0,15.66-.52-.36.22-.72.45-1.09.65C101.06,145.33,101.13,145.87,102.3,146.36Z"/><path class="cls-19" d="M123.05,140.22a4.57,4.57,0,0,1-.23,2c-.79-1.19-2-.62-2.79-.33-1.86.66-3.85.56-5.63,1.13-3.59,1.16-7.21,1.09-10.87,1a16,16,0,0,1,4-.6,53.52,53.52,0,0,0,13.3-2.86A5.13,5.13,0,0,1,123.05,140.22Z"/><path class="cls-19" d="M123.1,149c1.76,2.58,1.88,2.61,5.06,1.77a14.18,14.18,0,0,1,1.75-.25c-.84,2.1-1.54,2.36-3.57,1.43-.53-.24-1.14-.32-1.68-.56C123.63,150.93,122.65,150.41,123.1,149Z"/><path class="cls-19" d="M122.75,142.78v2.28c-1,.66-1.5-.18-1.64-.83C120.83,143,121.94,143,122.75,142.78Z"/><path class="cls-19" d="M110.43,145.71c-1.57,1-2.5.84-3.25-.65C108.28,145.2,109.54,144.5,110.43,145.71Z"/><path class="cls-19" d="M125.2,156.09c-.42-.09-1.11.11-1.07-.59s.65-.6,1.12-.63,1,0,1,.55C126.29,156.11,125.65,156,125.2,156.09Z"/><path class="cls-19" d="M116.93,146.36V146a4.36,4.36,0,0,0-.23-.6c-.25-.49-1.11-.65-.81-1.43a.33.33,0,0,1,.55-.08c.51.48,1.09,1,1.07,1.72C117.51,145.88,117.13,146.12,116.93,146.36Z"/><path class="cls-19" d="M69.62,154.18c.78,0,1.07.44,1.57.83A1.22,1.22,0,0,1,69.62,154.18Z"/><path class="cls-19" d="M78.25,154.16a5.63,5.63,0,0,1,2.6.32C80,154.53,79,155.1,78.25,154.16Z"/><path class="cls-25" d="M133.84,116.79c-.28.4-.47.92-.85,1.17a2.37,2.37,0,0,0-.85,3.14c.35.92.35,1.67-.57,2.24a.69.69,0,0,0-.33.35c-.61,3.7-4.26,4.08-6.52,6-.21.17-.58.25-.66.45-1.28,3.23-4.5,3.34-7.1,4.27a52.71,52.71,0,0,0-6.13,2.87,4.36,4.36,0,0,1-2.15.65,3.73,3.73,0,0,0-3.18,1.19c-.79.83-2.11.73-3.24.75q-5.34.1-10.66-.08a14.77,14.77,0,0,1-5.38-.8,16.15,16.15,0,0,0-7.7-1.75c-.38,0-.68-.39-.79-.75-.62-2-2.27-2-3.92-2.09-.5,0-1.2.27-1.18-.62,0-.71-.69-1.5.49-2.08,1.65-.82,2.13-2.15,1.86-4.08-.09-.64-.27-1.19-1-1.28a1.24,1.24,0,0,0-1.4.86,14.76,14.76,0,0,0-.5,2.21c-.12.63-.09,1.42-.8,1.66s-1.18-.55-1.64-1-1-1.15-1.48-1.72c-.64-.73-1.21-.85-1.72.18-.38.78-.81,1-1.3,0s-1.74-1.83-1.1-3.3c.14-.33-.18-.76-.49-1-1.33-.87-2.16-2.36-3.34-3.2-1.45-1-2-2.4-2.81-3.75a7.38,7.38,0,0,0-.58-.77,64.13,64.13,0,0,0-1.36-9.74c-1-5.26-2-10.55-1.09-16a35.84,35.84,0,0,0,.13-5.49c.27-1.69-.3-3.27-.64-4.87,0-3.33-.78-6.61-.66-9.95a2.21,2.21,0,0,1,.9-1.59c1.65-1.52,3.26-3,3.33-5.52a1,1,0,0,1,.37-.71c1.74-1.49,2.76-3.58,4.27-5.27a4.14,4.14,0,0,1,1.3-1.18,2.11,2.11,0,0,0,1.39-1.47.75.75,0,0,1,.82-.63c2.49,1,4.25-.73,4.67-4.13.69.46,1.31.84,1.9,1.28a1.84,1.84,0,0,0,3.08-1.06c.57-3.15,3.06-4.42,5.46-5.77a9,9,0,0,0,1.73-.85c1-.87,2.15-.9,3.42-1.06,2.18-.28,4.55-.26,6.4-1.82a1.7,1.7,0,0,1,1.19-.4l15.06-.11a2.3,2.3,0,0,1,1.25.21c2,1.47,4.29,1.22,6.53,1.2a1.91,1.91,0,0,1,1.69.76,4,4,0,0,0,3.23,1.62,3.3,3.3,0,0,1,3.08,2.46,2.07,2.07,0,0,0,2,1.55,5.41,5.41,0,0,1,2.93,1.29,2.29,2.29,0,0,1,1,2.67,4,4,0,0,0,.47,3.14c.66,1.23,1.58,1.37,2.86.56.34-.21.81-.51,1-.13.66,1.33,2,1.71,3.08,2.5.51.38,1.08.91.93,1.61s-.92.29-1.4.4a1.46,1.46,0,0,0-1.22,1.34c-.11,1.08-.27,2.19.72,3,.65.53,1.18.13,1.76-.22,1.47-.87,2.19-.52,2.28,1.25.1,2.07.08,4.13,1.34,5.92.26.79,1.08,1.34,1,2.27.15,2,1.31,3.81.64,5.85l0,1c-.46.57-.13,1.39-.62,1.94a7.23,7.23,0,0,0,1.95,5.86c.4,1.13.45,2.38,1.19,3.4a.61.61,0,0,1,.09.61c-.91,1.12-.35,2.64-1,3.78a3.66,3.66,0,0,0-.53,2.52,19.52,19.52,0,0,1-.66,7.64c-.5,2-1.49,2.44-3.89,1.77-.6-.1-.76-.67-1.11-1s-.67-1.15-1.48-.78a.59.59,0,0,0,0,.52c.09.26.1.56.29.75,1.28,1.3.95,2.59,0,3.89a4,4,0,0,1-1.61,1.25c-1.33.53-1.15,2-1.47,3.13C134.51,116.12,134.82,116.89,133.84,116.79Z"/><path class="cls-16" d="M65.57,54.06c-.34,2.13-2.28,3.06-3.49,4.52s-1.91,3.53-3.65,4.68a.89.89,0,0,0-.27.73c.24,2-1.08,3.39-2.38,4.35-2.25,1.67-2.11,3.86-1.93,6.09a19.15,19.15,0,0,1,0,5.95H53.6a27.28,27.28,0,0,0-.72-5.17c-.38-1.5.12-3.12-.66-4.56a7,7,0,0,1-.29-2.94,17.09,17.09,0,0,1,1-2.25l0,0c2.59-.1,2.77-2,2.9-3.92l1-2.59c1.06-.86.71-2.15,1-3.25l.67-1.29c.32-.5.65-1,1.35-1a1.79,1.79,0,0,0,1.56-1l2.92-.67C64.33,52.73,65.39,53.15,65.57,54.06Z"/><path class="cls-16" d="M75,41.08l1.28-.69c1.39-.4,2.85.18,4.24-.28l2.59-.69c2.47-.35,4.94-.68,7.4-1.06a12.58,12.58,0,0,0,1.69-.5A3.93,3.93,0,0,1,89,39.47c-1.53.15-3.29-.29-4.46,1.28a.8.8,0,0,1-.75.07c-2-1-3.4.16-4.68,1.27s-3.42,1.4-4.41,3.13c-.18.31-.68.33-1.06.26-1-.19-1.5.32-2.21,1-1.3,1.14-2.42,2.63-4.24,3.08,1.08-1,1.29-2.52,2.24-3.59a4.76,4.76,0,0,1,1.63-2.29,2.17,2.17,0,0,1,1.3-1C73.27,42.16,74.45,42.13,75,41.08Z"/><path class="cls-16" d="M72.44,50.48a6.11,6.11,0,0,1-.53-1.17c-.16-.67-.4-1.56.43-1.85,1.16-.41,1.75.58,2.26,1.4s.26,1.34-.66,1.59C73.43,49.93,72.94,50.43,72.44,50.48Z"/><path class="cls-16" d="M104.24,36.2c1.57-.16,3,.4,4.56.64a6.65,6.65,0,0,1-3.41.75C104.41,37.67,104,37.18,104.24,36.2Z"/><path class="cls-26" d="M131.3,52.23c.65.19.88.74,1.08,1.3s.61.95.24,1.51a.46.46,0,0,1-.71.08A2.47,2.47,0,0,1,130.64,53C130.67,52.59,130.81,52.26,131.3,52.23Z"/><path class="cls-27" d="M72.44,50.48a.81.81,0,0,1,0-.16c.14-.61-.64-1.72.61-1.7,1,0,1.07,1,.88,1.83C73.45,50.85,73,51.25,72.44,50.48Z"/><path class="cls-28" d="M136.77,61.23c.73.17.77.82.88,1.38s0,1-.58.93-.71-.72-.77-1.26S136.17,61.4,136.77,61.23Z"/><path class="cls-14" d="M75,41.08a2.44,2.44,0,0,1-2.62,1.59C73.05,41.8,74.18,41.68,75,41.08Z"/><path class="cls-14" d="M80.52,40.11c-1.37.71-2.82.28-4.24.28C77.66,39.85,79.1,40.18,80.52,40.11Z"/><path class="cls-14" d="M71.08,43.63a8.61,8.61,0,0,1-1.63,2.29A2.28,2.28,0,0,1,71.08,43.63Z"/><path class="cls-15" d="M61.34,52.43c-.37,1.54-2.05,1.14-2.91,2C58.82,52.87,60.39,53.11,61.34,52.43Z"/><path class="cls-15" d="M57.76,55.67c0,1.19.53,2.53-1,3.25Z"/><path class="cls-15" d="M52.22,70.64c1.1,1.39.53,3,.66,4.56Z"/><path class="cls-15" d="M52.89,65.45a3.28,3.28,0,0,1-1,2.25A2.54,2.54,0,0,1,52.89,65.45Z"/><path class="cls-12" d="M111.4,142.12l-.64,0a.44.44,0,0,1-.66,0c0-2.68.05-2.55,2.65-3,2.26-.35,4.12-1.79,6.14-2.78,1.62-.79,3.45-1.33,4.57-3,.26-.39.77-.2,1.21-.12.78.16,1.57.24,2.62.39-1.31-2-.25-2.55,1.21-3.41,1.21-.7,1.73-2.34,3-3.24.93-.68,1.72-1.46,3-1.49q1.31,0,.78-1.29c-.38-.88-.06-1.27.86-1.66,1.88-.81,3.85-1.54,4.15-4.16.15-1.33,1.3-2.48,1.64-3.85.2-.8.63-1.83-1-1.1-1,.45-1.1-.91-1.87-.93-.39-1.54.63-2.88.63-4.37,2-.56,2.54-.07,2.5,2.35.1.07.29,0,.28,0-.15-2.29,1.74-3.94,1.9-6.17.06-.72.17-2.28,1.81-1.85a36.46,36.46,0,0,1-1.45,7.46,6.89,6.89,0,0,0-.41,2.55,1.85,1.85,0,0,1-.62,1.6,4.18,4.18,0,0,0-1.21,4.29c.15.69.25,1.37-.55,1.63-2.54.84-3.68,3.12-5.35,4.9s-2.81,3.9-5.23,4.82a4.5,4.5,0,0,0-1.87,2c-1.06,1.89-2.82,3.06-4.32,4.49a5,5,0,0,1-2.7,1,2.77,2.77,0,0,0-2.59,2.65h0a44,44,0,0,1-7.17,1.71C112.24,141.66,111.69,141.63,111.4,142.12Z"/><path class="cls-18" d="M146.16,102.49a6.1,6.1,0,0,0-1.29,3.11,2,2,0,0,1-.31,1.07c-1.11,1.2-1.1,2.62-1,4.11,0,.56.23,1.56-.35,1.57a4.64,4.64,0,0,1-2.31-1c-.59-.37-.33-1,0-1.43.88-1.18.17-1.49-.87-1.63a.56.56,0,0,1-.06-1c2.44.43,2.76.11,3.35-2.22a24.68,24.68,0,0,0,.59-6.28,3.36,3.36,0,0,1,.14-1.6c1.07-1.88.65-3.73.1-5.6,0-.13.07-.29.11-.44.81,0,.46,1.13,1.46,1.07-.21-1.4-1.17-2.67-.84-4.13a16.83,16.83,0,0,1,1.91,4.57c-.59.88-.12,2-.62,2.9l-.33,1c-.6,1.06,0,2,.33,2.92Z"/><path class="cls-12" d="M143.59,79.4c-.16-1.18.39-2.45-1-3.47-.7-.53.35-1.54.31-2.38A7.35,7.35,0,0,1,143.59,79.4Z"/><path class="cls-12" d="M146.18,95.65c-.15-1.05-.33-2.09.62-2.9A3.87,3.87,0,0,1,146.18,95.65Z"/><path class="cls-12" d="M146.18,99.55c-.55-.92-1.53-1.8-.33-2.92Z"/><path class="cls-12" d="M142.94,82.32a2.28,2.28,0,0,1,.62-1.94A2.18,2.18,0,0,1,142.94,82.32Z"/><path class="cls-29" d="M136.56,106.3l-.05-.62c.24-.42.42-.57,1-.27a4.27,4.27,0,0,1,1.94,5.51,5.49,5.49,0,0,1-3.24,3c-.37,1.57-.73,3.14-1.12,4.7a3.53,3.53,0,0,1-1.07,2c-.55.44-.76.18-.75-.42a22.47,22.47,0,0,0,1.38-5.13,3.24,3.24,0,0,1,2.4-3.15c.18-.32.45-.59.64-.91,1.18-2,1.15-2.24-.61-3.9C136.83,106.84,136.54,106.67,136.56,106.3Z"/><path class="cls-30" d="M136.19,113.9a7.52,7.52,0,0,0,3.08-3.55,3.55,3.55,0,0,0-2.76-4.67c.23-1.12.87-.87,1.54-.44a8.76,8.76,0,0,1,1.93,2.14l.06,1c.33,1.56-.42,2.87-1,4.22A4.06,4.06,0,0,1,136.19,113.9Z"/><path class="cls-31" d="M137.41,111.91c-2,.84-2.38,2.66-2.69,4.56a6.13,6.13,0,0,1-1.47,3.67c-.19-1.18.62-2.2.59-3.35a2.14,2.14,0,0,0,.22-.61,5.85,5.85,0,0,1,3.31-5.31C137.73,111.2,137.61,111.56,137.41,111.91Z"/><path class="cls-32" d="M74.48,128a3.16,3.16,0,0,1-.9,2.31.36.36,0,0,1-.55-.13,3.28,3.28,0,0,1,0-2.33c.11-.51.27-1.17.95-1S74.43,127.51,74.48,128Z"/><path class="cls-22" d="M81.82,142.11c-.79-.87-2-.94-2.93-1.61,1.74-.06,3.35.17,4.23,2Z"/><path class="cls-22" d="M90.27,143.76a7.82,7.82,0,0,1-3.9-.65C87.74,142.94,89.18,142.29,90.27,143.76Z"/><path class="cls-17" d="M110.1,142.11l.66,0a13.24,13.24,0,0,1-4.88.64C107.16,141.76,108.68,142.26,110.1,142.11Z"/><path class="cls-22" d="M96.46,143.76a12.83,12.83,0,0,1-6.19,0Z"/><path class="cls-17" d="M111.4,142.12l-.17-1.64c2.52,1.29,4.74-.06,7-.38l1.58-.24a3.3,3.3,0,0,1-2,.89A42.77,42.77,0,0,1,111.4,142.12Z"/><path class="cls-33" d="M137.41,111.91c0-.34,0-.69,0-1,.76-1.23.94-2.39-.35-3.42a1.3,1.3,0,0,1-.46-1.15C139.31,108.33,139.4,108.92,137.41,111.91Z"/><path class="cls-34" d="M138,70.12c0,.58-.14,1-.7,1s-.85-.58-.86-1.16.1-1,.67-.91S137.9,69.69,138,70.12Z"/><path class="cls-35" d="M63.68,55.34c-.65,0-.8-.35-.76-.76,0-.58.26-1.06.95-1.06.48,0,.62.33.61.75A1,1,0,0,1,63.68,55.34Z"/></g><g id="face"><path class="cls-36" d="M114.63,120.38c6.82-2.14,13.34-9.44,9.69-16.94-2.06-4.24-8.68-.62-11.48.39-6.15,2.21-12.19,1.87-18.44.3-3.76-.94-7.86-1-9.8,3-1.57,3.21-.21,7.4,1.73,10.11,2.33,3.22,7,4.14,10.66,4.58A42.41,42.41,0,0,0,114.63,120.38Z"/><path class="cls-37" d="M100.08,106.19a37.33,37.33,0,0,1-4.08-.62,110.08,110.08,0,0,1-1.5,14.72,41.38,41.38,0,0,0,5,.76A90,90,0,0,0,100.08,106.19Zm7.17-.1a118.78,118.78,0,0,1,1,14.84,30.58,30.58,0,0,0,4.22-.83,46.9,46.9,0,0,0-2.08-14.56C109.32,105.77,108.28,106,107.25,106.09Zm11.94-3.38a55.54,55.54,0,0,1,3.4,10.68,10.23,10.23,0,0,0,1.46-4.55c.13-1.69.34-5-1.6-5.84A5.27,5.27,0,0,0,119.19,102.71Zm-3.62,1.22-.08,0a44.81,44.81,0,0,1,2.81,13.63l.07,0a13.74,13.74,0,0,0,3.41-3,.43.43,0,0,1,0-.12A54,54,0,0,0,118.16,103C117.28,103.23,116.42,103.6,115.57,103.93Zm-4.19,1.36a47.29,47.29,0,0,1,2.11,14.49,22.36,22.36,0,0,0,3.82-1.62.19.19,0,0,1,0-.08,45,45,0,0,0-2.79-13.76C113.45,104.69,112.41,105,111.38,105.29Zm-10.24,1a90,90,0,0,1-.55,14.86,40.18,40.18,0,0,0,6.58-.09,120.69,120.69,0,0,0-1-14.84A31.89,31.89,0,0,1,101.14,106.28ZM87.66,117c1-4.11,1.8-8.27,2.51-12.43a4.76,4.76,0,0,0-3.85,1.76,6.9,6.9,0,0,0-1.13,5.73A10.36,10.36,0,0,0,87.66,117Zm5.14,2.89.67.17A105.18,105.18,0,0,0,95,105.34l-.83-.19a19.21,19.21,0,0,0-2.91-.55.16.16,0,0,1,0,.07c-.74,4.41-1.59,8.81-2.66,13.15A11.24,11.24,0,0,0,92.8,119.88Zm.29-19.83c8.91-.33,13.33-9.13,13.51-17.13.17-8.21-3.64-18.65-13.49-18.49-9.47.16-14.1,9-14.24,17.54C79,90.13,83.4,100.41,93.09,100.05Zm11.93-7c3.55,5.13,10.42,7.85,16,4.27,5.14-3.25,7.14-9.51,7.09-15.36,0-5.59-1.69-12.08-7-15-5.71-3.09-12.22-1.06-16,4a22.93,22.93,0,0,1,2.49,11.84A25.82,25.82,0,0,1,105,93.08Z"/><path class="cls-1" d="M143.76,76.62c-1.52.25-13.85.38-15.39.41a22,22,0,0,1,.45,4.36c1.45,0,2.9-.08,4.34-.17.66,0,12.16.13,12.21-.64a5.25,5.25,0,0,0-.11-1.53C145.11,78.43,144.7,76.46,143.76,76.62Zm-92.84,5.9c0,2.27,2.22,1.85,4.07,1.88s3.54,0,5.31,0c4.52,0,14-.17,18.51-.43-.07-.69-.11-1.37-.12-2a21.84,21.84,0,0,1,.16-2.26c-4.41.15-13.8.05-18.21-.11l-6.58-.27C51.72,79.24,50.92,80.54,50.92,82.52Z"/><path class="cls-36" d="M89.3,89.77A18.42,18.42,0,0,1,87.9,82a21.54,21.54,0,0,1,1.38-6.83c2-4.87,7.11-6.69,10.73-3.12.79.78.79.93,0,2-1.63,2.3-3.72,5.39-5.46,8.08-.75,1.17-.16,1.17.75.81,2.8-1.11,5-2,6.65-2.6,1.13-.45,1.41-.45,1.47.6,0,.57,0,1.11,0,1.62a20.6,20.6,0,0,1-1.28,7C99.36,96.42,92.19,96.17,89.3,89.77Z"/><path class="cls-36" d="M111.88,89.33A17.45,17.45,0,0,1,110.56,82a20.59,20.59,0,0,1,1.3-6.44c1.84-4.57,6.7-6.29,10.1-2.93.75.74.75.88,0,1.9-1.54,2.15-3.51,5.06-5.15,7.6-.71,1.1-.15,1.1.71.76,2.64-1,4.7-1.83,6.26-2.44,1.07-.43,1.33-.43,1.38.56q0,.8,0,1.53A19.67,19.67,0,0,1,124,89.05C121.35,95.59,114.61,95.36,111.88,89.33Z"/><path class="cls-36" d="M123.45,64.55Z"/><path class="cls-38" d="M129.15,79.87c0,.5.06,1,.06,1.52,1.35,0,2.7-.08,4-.17.62,0,1.29.13,1.34-.64a4.7,4.7,0,0,0,0-.65A8.4,8.4,0,0,1,129.15,79.87Z"/><path class="cls-38" d="M61.14,83.09a60.22,60.22,0,0,1-6.71-.5A12.72,12.72,0,0,1,51,81.73a6.56,6.56,0,0,0,0,.79c0,2.27,2.22,1.85,4.07,1.88s3.54,0,5.31,0q6.78,0,13.54-.43c0-.48-.08-1-.1-1.43A108,108,0,0,1,61.14,83.09Z"/><path class="cls-39" d="M92.35,64.47c-9,.61-13.35,9.24-13.48,17.5.13,8.16,4.53,18.44,14.22,18.08a12.84,12.84,0,0,0,3.37-.58l-.7,0a11.4,11.4,0,0,1-6-1.77c-3.64-2.21-6-6.22-7.16-10.2A20.22,20.22,0,0,1,83.8,73.22,18.43,18.43,0,0,1,92.35,64.47Z"/><path class="cls-39" d="M112,67.06a7.44,7.44,0,0,1,1.26-1.25,13.29,13.29,0,0,0-8,5.27,22.93,22.93,0,0,1,2.49,11.84A25.82,25.82,0,0,1,105,93.08,13.2,13.2,0,0,0,115.6,99a13.46,13.46,0,0,1-5.08-5.6c-1.83-3.6-2-7.94-2-11.91a33.17,33.17,0,0,1,1.13-9.77A13.41,13.41,0,0,1,112,67.06Z"/><path class="cls-39" d="M93.32,111.18l1.26.33c.19-2.06.32-4.13.37-6.17l-.83-.19a19.21,19.21,0,0,0-2.91-.55.16.16,0,0,1,0,.07c-.31,1.87-.66,3.74-1,5.6C91.24,110.56,92.29,110.9,93.32,111.18Z"/><path class="cls-39" d="M100.08,106.19a37.33,37.33,0,0,1-4.08-.62c-.06,2.05-.19,4.12-.39,6.18a35,35,0,0,0,4.55.71C100.21,110.37,100.19,108.27,100.08,106.19Z"/><path class="cls-39" d="M105.23,112.5c.54,0,1.07-.12,1.6-.21q-.22-3-.61-6.08a31.89,31.89,0,0,1-5.08.07c.11,2.08.12,4.17.07,6.26A30,30,0,0,0,105.23,112.5Z"/><path class="cls-39" d="M89.17,110q.54-2.72,1-5.45a4.76,4.76,0,0,0-3.85,1.76A6.22,6.22,0,0,0,85,109.7,11.59,11.59,0,0,1,89.17,110Z"/><path class="cls-39" d="M122.45,103a5.27,5.27,0,0,0-3.26-.29c.58,1.32,1.11,2.69,1.58,4.07a15,15,0,0,1,3.29-.92A3.33,3.33,0,0,0,122.45,103Z"/><path class="cls-39" d="M110.36,105.54c-1,.23-2.08.42-3.11.55.27,2,.47,4,.62,6a28.62,28.62,0,0,0,3.83-1.16A36.74,36.74,0,0,0,110.36,105.54Z"/><path class="cls-39" d="M118.16,103c-.88.26-1.74.63-2.59,1l-.08,0a35,35,0,0,1,1.47,4.61c1-.49,1.9-1,2.85-1.39C119.32,105.75,118.77,104.34,118.16,103Z"/><path class="cls-39" d="M116,109.05a35.25,35.25,0,0,0-1.49-4.73c-1,.37-2.09.7-3.12,1a36,36,0,0,1,1.32,5.25c.88-.36,1.75-.75,2.61-1.16Z"/><path class="cls-37" d="M109.18,52.94a16.78,16.78,0,0,0-7.92-2.49c-3-.33-6.86-.5-9.54,1a.4.4,0,0,0,.1.73c2.45.39,5.06,0,7.55.06a54.58,54.58,0,0,1,9.41,1.59A.51.51,0,0,0,109.18,52.94Z"/><path class="cls-37" d="M112.22,53.78a2,2,0,0,0-1.07-.27c-.47,0-1,.58-.6,1a2,2,0,0,0,.83.68,1.1,1.1,0,0,0,.79.15.83.83,0,0,0,.38-.23c-.14.19.13-.14.13-.14a.5.5,0,0,0,.07-.27c0,.22,0-.07,0-.15A.94.94,0,0,0,112.22,53.78Z"/><path class="cls-37" d="M81.75,133.76a28.4,28.4,0,0,1-4.59-4.1.38.38,0,0,0-.63.37,9.82,9.82,0,0,0,3.4,4.36,12.84,12.84,0,0,0,5.41,3.14.46.46,0,0,0,.44-.76A24.3,24.3,0,0,0,81.75,133.76Z"/><path class="cls-37" d="M88.09,137.82l-.07,0h0a1.36,1.36,0,0,0-.33-.14,1.46,1.46,0,0,0-.51-.07.64.64,0,0,0-.55,1,1.9,1.9,0,0,0,1.06.85.83.83,0,0,0,.92-.37.76.76,0,0,0,.11-.42A.84.84,0,0,0,88.09,137.82Z"/></g></g><path class="cls-37" d="M28.37,147.86a71.36,71.36,0,0,0,6.33-5.67,73,73,0,0,0,5.67-6.33A73,73,0,0,0,46,142.19a71.36,71.36,0,0,0,6.33,5.67A73,73,0,0,0,46,153.53a74.48,74.48,0,0,0-5.67,6.33,74.48,74.48,0,0,0-5.67-6.33A73,73,0,0,0,28.37,147.86Z"/><path class="cls-37" d="M33.87,159.61a28.81,28.81,0,0,0,2.24,2.51,30.35,30.35,0,0,0,2.51,2.24,30.77,30.77,0,0,0-4.75,4.75,28.76,28.76,0,0,0-2.24-2.5,27.44,27.44,0,0,0-2.51-2.25,29.64,29.64,0,0,0,4.75-4.75Z"/><path class="cls-37" d="M48.12,162.11a49.54,49.54,0,0,0,7.75,7.75,49.54,49.54,0,0,0-7.75,7.75,48.17,48.17,0,0,0-3.66-4.09,48.36,48.36,0,0,0-4.09-3.66,46.68,46.68,0,0,0,4.09-3.66A46.68,46.68,0,0,0,48.12,162.11Z"/><path class="cls-40" d="M179.85,31.55c-4.28-1-8.34-2.91-11.06-6.48s-3.61-7.77-4.18-12c-.25-1.95-.43-1.93-.69,0-.58,4.28-1.56,8.48-4.18,12s-6.67,5.47-10.87,6.44c-2.05.48-.87.66,0,.86,4.22,1,8.2,2.93,10.88,6.45s3.57,7.56,4.14,11.73c.25,1.85.53,1.78.79-.07.58-4.16,1.58-8.21,4.12-11.66s6.83-5.54,11.1-6.5C181.26,32,181.43,31.91,179.85,31.55Z"/></g></svg>